<svg xmlns="http://www.w3.org/2000/svg" viewBox="0 0 24 24" id="Basket"><path fill="#ff542f" d="M19.75,11.33A1,1,0,0,0,19,11H5a1,1,0,0,0-.75.33,1,1,0,0,0-.24.78l.8,7.22a3,3,0,0,0,3,2.67h8.42a3,3,0,0,0,3-2.67l.8-7.22A1,1,0,0,0,19.75,11.33Z" class="color55abff svgShape"></path><rect width="18" height="6" x="3" y="7" fill="#3d3d3d" rx="1" class="color0078ee svgShape"></rect><path fill="#ff542f" d="M12,11a1,1,0,0,1-.87-1.5l4-7a1,1,0,0,1,1.74,1l-4,7A1,1,0,0,1,12,11Z" class="color55abff svgShape"></path><path fill="#3d3d3d" d="M10 19a1 1 0 0 1-1-1V15a1 1 0 0 1 2 0v3A1 1 0 0 1 10 19zM14 19a1 1 0 0 1-1-1V15a1 1 0 0 1 2 0v3A1 1 0 0 1 14 19z" class="color0078ee svgShape"></path></svg>