<svg xmlns="http://www.w3.org/2000/svg" fill="none" viewBox="0 0 64 64" id="Basket"><path fill="#f4beb2" d="M10.4838 33.3396L18.4282 55.3396C18.5713 55.7359 18.9474 56 19.3688 56H52.6312C53.0526 56 53.4287 55.7359 53.5718 55.3396L61.5162 33.3396C61.7516 32.6878 61.2687 32 60.5757 32H11.4243C10.7313 32 10.2484 32.6878 10.4838 33.3396Z" class="colorb2b6f4 svgShape"></path><path fill="#f8c3b7" d="M6.48376 29.3396L14.4282 51.3396C14.5713 51.7359 14.9474 52 15.3688 52H48.6312C49.0526 52 49.4287 51.7359 49.5718 51.3396L57.5162 29.3396C57.7516 28.6878 57.2687 28 56.5757 28H7.42431C6.7313 28 6.24838 28.6878 6.48376 29.3396Z" class="colorf8b7c2 svgShape"></path><path fill="#3d3d3d" fill-rule="evenodd" d="M57.5253 29.3429L59.3973 30.0189L51.4529 52.0189C51.0236 53.2078 49.8952 54 48.6312 54H15.3688C14.1048 54 12.9764 53.2078 12.5471 52.0189L4.60265 30.0189C3.89651 28.0635 5.34526 26 7.42431 26H56.5757C58.6548 26 60.1035 28.0635 59.3973 30.0189L57.5253 29.3429ZM14.4282 51.3396L6.48376 29.3396C6.24838 28.6878 6.7313 28 7.42431 28H56.5757C57.2687 28 57.7516 28.6878 57.5162 29.3396L49.5718 51.3396C49.4287 51.7359 49.0526 52 48.6312 52H15.3688C14.9474 52 14.5713 51.7359 14.4282 51.3396Z" clip-rule="evenodd" class="color763b28 svgShape"></path><path fill="#ff542f" fill-rule="evenodd" d="M13.9445 50H46.6312C47.0526 50 47.4287 49.7359 47.5718 49.3396L55.2778 28H56.5757C57.2687 28 57.7516 28.6878 57.5162 29.3396L49.5718 51.3396C49.4287 51.7359 49.0526 52 48.6312 52H15.3688C14.9474 52 14.5713 51.7359 14.4282 51.3396L13.9445 50Z" clip-rule="evenodd" class="colorf28b9d svgShape"></path><path fill="#3d3d3d" fill-rule="evenodd" d="M25.6247 11.2192C26.056 11.5642 26.1259 12.1935 25.7809 12.6247L13.7809 27.6247C13.4359 28.056 12.8066 28.1259 12.3753 27.7809 11.944 27.4359 11.8741 26.8066 12.2191 26.3753L24.2191 11.3753C24.5641 10.9441 25.1934 10.8742 25.6247 11.2192zM38.3753 11.2192C37.944 11.5642 37.8741 12.1935 38.2191 12.6247L50.2191 27.6247C50.5641 28.056 51.1934 28.1259 51.6247 27.7809 52.056 27.4359 52.1259 26.8066 51.7809 26.3753L39.7809 11.3753C39.4359 10.9441 38.8066 10.8742 38.3753 11.2192z" clip-rule="evenodd" class="color763b28 svgShape"></path><path fill="#ffffff" fill-rule="evenodd" d="M8.17972 29.428C8.36673 29.1598 8.67304 29 9 29H29C29.5523 29 30 29.4477 30 30C30 30.5523 29.5523 31 29 31H10.4341L16.9383 48.6543C17.1293 49.1725 16.8639 49.7474 16.3457 49.9383C15.8275 50.1293 15.2526 49.8639 15.0617 49.3457L8.06166 30.3457C7.94863 30.0389 7.99271 29.6962 8.17972 29.428Z" clip-rule="evenodd" class="colorffffff svgShape"></path></svg>