<svg xmlns="http://www.w3.org/2000/svg" enable-background="new 0 0 128 128" viewBox="0 0 128 128" id="cart"><path fill="#ff542f" d="M4,64L4,64c0,5,4,9,9,9h1l8.4,42.9c0.9,4.7,5,8.1,9.8,8.1h63.5c4.8,0,8.9-3.4,9.8-8.1L114,73h1c5,0,9-4,9-9v0
			c0-5-4-9-9-9H13C8,55,4,59,4,64z" class="colordfe8f4 svgShape"></path><path fill="#3d3d3d" d="M44,76H13C6.4,76,1,70.6,1,64s5.4-12,12-12h27c1.7,0,3,1.3,3,3s-1.3,3-3,3H13c-3.3,0-6,2.7-6,6s2.7,6,6,6h31
			c1.7,0,3,1.3,3,3S45.7,76,44,76z" class="color444b54 svgShape"></path><path fill="#3d3d3d" d="M127,64c0-6.6-5.4-12-12-12H88c-1.7,0-3,1.3-3,3s1.3,3,3,3h27c3.3,0,6,2.7,6,6s-2.7,6-6,6H82c-1.7,0-3,1.3-3,3
		s1.3,3,3,3h28.4l-7.7,39.3c-0.6,3.3-3.5,5.7-6.9,5.7H32.2c-3.3,0-6.2-2.4-6.9-5.6l-5.9-30c-0.3-1.6-1.9-2.7-3.5-2.4
		c-1.6,0.3-2.7,1.9-2.4,3.5l5.9,30c1.2,6.1,6.6,10.5,12.8,10.5h63.6c6.2,0,11.6-4.4,12.8-10.5l8-40.6C122.4,75.2,127,70.1,127,64z" class="color444b54 svgShape"></path><path fill="#ffffff" d="M72,65V12c0-4.4-3.6-8-8-8h0c-4.4,0-8,3.6-8,8v53c0,4.4,3.6,8,8,8h0C68.4,73,72,69.4,72,65z" class="colorffffff svgShape"></path><path fill="#b8b8b8" d="M64,76c-6.1,0-11-4.9-11-11V12c0-6.1,4.9-11,11-11s11,4.9,11,11v53C75,71.1,70.1,76,64,76z M64,7
			c-2.8,0-5,2.2-5,5v53c0,2.8,2.2,5,5,5s5-2.2,5-5V12C69,9.2,66.8,7,64,7z" class="color71c2ff svgShape"></path></svg>