<svg xmlns="http://www.w3.org/2000/svg" width="96" height="97" fill="none"><path fill="#E0C32A" d="M74 71.907c0 6.155-10.913 11.144-24.375 11.144S25.25 78.061 25.25 71.907c0-6.155 10.913-11.144 24.375-11.144S74 65.753 74 71.907Z"/><path fill="#D8AB0A" fill-rule="evenodd" d="M67.692 81.606c-4.727 2.161-11.116 3.445-18.067 3.445-6.95 0-13.34-1.284-18.067-3.445-4.55-2.08-8.308-5.361-8.308-9.699s3.757-7.618 8.308-9.699c4.727-2.161 11.116-3.445 18.067-3.445 6.95 0 13.34 1.284 18.067 3.445 4.55 2.08 8.308 5.361 8.308 9.699s-3.757 7.618-8.308 9.699ZM49.625 83.05C63.087 83.051 74 78.061 74 71.907c0-6.155-10.913-11.144-24.375-11.144S25.25 65.753 25.25 71.907c0 6.155 10.913 11.144 24.375 11.144Z" clip-rule="evenodd"/><path fill="#EBD24F" d="M86.125 62.364c0 9.216-16.342 16.687-36.5 16.687s-36.5-7.471-36.5-16.688c0-9.216 16.342-16.687 36.5-16.687s36.5 7.471 36.5 16.688Z"/><path fill="#D8AB0A" fill-rule="evenodd" d="M76.266 75.982c-6.921 3.165-16.342 5.069-26.641 5.069s-19.72-1.904-26.641-5.069c-6.745-3.083-11.859-7.75-11.859-13.618 0-5.869 5.114-10.536 11.859-13.62 6.921-3.163 16.342-5.068 26.641-5.068s19.72 1.904 26.641 5.069c6.745 3.083 11.859 7.75 11.859 13.619 0 5.868-5.114 10.535-11.859 13.618Zm-26.641 3.069c20.158 0 36.5-7.471 36.5-16.688 0-9.216-16.342-16.687-36.5-16.687s-36.5 7.471-36.5 16.688c0 9.216 16.342 16.687 36.5 16.687Z" clip-rule="evenodd"/><path fill="#FCEDA2" fill-rule="evenodd" d="M17.343 67.107a1 1 0 0 1 1.414-.026c1.633 1.576 6.96 5.26 14.612 6.674a1 1 0 0 1-.363 1.967c-8.049-1.487-13.73-5.36-15.638-7.201a1 1 0 0 1-.025-1.414Z" clip-rule="evenodd"/><path fill="#C09B16" d="M77.72 60.614c0 7.145-12.669 12.937-28.297 12.937-15.629 0-28.298-5.792-28.298-12.938 0-7.145 12.67-12.937 28.298-12.937 15.628 0 28.297 5.792 28.297 12.938Z"/><path fill="#FFF2E3" d="m54.86 20.877-4.611 5.156.603 2.288 5.465-6.064c1.739.703 3.37-.042 3.91-1.084.54-1.043.12-2.579-2.008-2.225.336-2.287-2.537-2.197-3.155-1.297-.86 1.253-.631 2.657-.203 3.226Z"/><path fill="#B3987A" fill-rule="evenodd" d="M48.315 26.543a2 2 0 0 1 .443-1.843l3.81-4.26a4.973 4.973 0 0 1-.089-.909c-.005-.95.255-2.02.936-3.012.523-.76 1.32-1.125 1.905-1.29a4.478 4.478 0 0 1 2.072-.085c.71.142 1.54.507 2.144 1.285.149.193.272.396.373.606.795.206 1.503.656 1.994 1.416.788 1.218.613 2.653.1 3.642-.875 1.689-2.892 2.658-5.002 2.393l-4.663 5.174a2 2 0 0 1-3.42-.83l-.603-2.287Zm8.002-4.286c1.739.703 3.37-.042 3.91-1.084.345-.665.298-1.53-.332-1.978-.359-.255-.905-.375-1.676-.247.076-.516-.012-.911-.2-1.203-.646-1.002-2.477-.79-2.955-.094-.86 1.253-.631 2.657-.203 3.226l-4.612 5.156.603 2.288 5.465-6.064Z" clip-rule="evenodd"/><path fill="#DC8927" d="M52.54 33.5c3.163-5.991.898-8.82-.63-9.486-4.464-1.598-12.334 4.526-15.076 8.301-2.378 3.275-5.187 10.456-.337 11.608 4.85 1.153 12.091-2.935 16.044-10.423Z"/><path fill="#8B4E05" fill-rule="evenodd" d="m52.647 22.153.062.027c1.34.584 2.715 1.967 3.222 4.122.507 2.155.104 4.863-1.621 8.131-2.137 4.048-5.177 7.21-8.397 9.216-3.174 1.978-6.75 2.963-9.878 2.22-1.789-.425-3.056-1.492-3.703-2.995-.595-1.383-.577-2.928-.35-4.29.457-2.726 1.912-5.623 3.234-7.444 1.546-2.128 4.4-4.77 7.446-6.684 1.533-.964 3.194-1.795 4.837-2.271 1.622-.47 3.42-.65 5.085-.055l.063.023Zm-.737 1.86c-4.464-1.598-12.334 4.527-15.076 8.302-2.378 3.275-5.187 10.456-.337 11.608 4.85 1.153 12.091-2.935 16.044-10.424 3.162-5.99.897-8.82-.631-9.486Z" clip-rule="evenodd"/><path fill="#F4A03D" d="M41.683 30.086a1.077 1.077 0 1 0-.618 2.064 1.077 1.077 0 0 0 .618-2.064zm3.197-2.825a1.077 1.077 0 1 0-.617 2.064 1.077 1.077 0 0 0 .617-2.064zm-.296 3.16a.684.684 0 1 0-.392 1.311.684.684 0 0 0 .392-1.311zm-5.213.982a.684.684 0 1 0-.391 1.311.684.684 0 0 0 .391-1.311zm7.649-5.098a.684.684 0 1 0-.392 1.311.684.684 0 0 0 .392-1.311zm-.193 2.168a.437.437 0 1 0-.25.837.437.437 0 0 0 .25-.837zm2.078-2.917a.437.437 0 1 0-.25.837.437.437 0 0 0 .25-.837zm-5.685 7.256a.437.437 0 1 0-.25.837.437.437 0 0 0 .25-.837zm-.809-4.226a.437.437 0 1 0-.25.837.437.437 0 0 0 .25-.837zm-1.986 4.56a.573.573 0 1 0-.329 1.099.573.573 0 0 0 .329-1.099zm-2.408.399a.341.341 0 1 0-.196.654.341.341 0 0 0 .196-.654zm.655 1.562a.39.39 0 1 0-.223.746.39.39 0 0 0 .223-.746z"/><path fill="#D47F1B" d="M46.5 69.614c-9.8.3-14.875-3.73-18.25-5.188-3.6-2-4.786-4.049-5-5.625C21.5 45.926 31.375 43.051 37 38.926s12.5-4.5 17.5-2.625 7.75 1.875 13.75 4.375c4.8 2 7.667 6.917 8.5 9.125 2.1 6.2 1.5 8.48 0 11.438-1.688 1.875-4.188 4.5-11.125 4.937-7.565.477-6.875 3.063-19.125 3.438Z"/><path fill="#8B4E05" fill-rule="evenodd" d="M27.457 66.262a2.01 2.01 0 0 1-.178-.088c-3.93-2.182-5.682-4.688-6.01-7.104-.474-3.484-.175-6.407.717-8.9.892-2.493 2.337-4.44 3.986-6.028 1.633-1.573 3.486-2.81 5.204-3.88.495-.307.97-.596 1.427-.874 1.191-.725 2.257-1.373 3.214-2.075 6.205-4.55 13.795-4.98 19.385-2.885 2.09.784 3.752 1.22 5.54 1.69l.77.203c2.108.559 4.391 1.21 7.507 2.509 2.799 1.166 4.967 3.15 6.523 5.072 1.554 1.92 2.587 3.888 3.08 5.193l.022.065c1.084 3.199 1.545 5.59 1.454 7.663-.093 2.13-.763 3.74-1.564 5.32-.08.157-.18.303-.297.434-.876.972-2.105 2.305-4.11 3.418-2.006 1.114-4.664 1.943-8.376 2.177-2.951.186-4.45.696-6.285 1.319-.328.11-.666.226-1.025.343-2.497.816-5.577 1.586-11.88 1.779-8.47.259-13.849-2.606-17.161-4.371-.75-.4-1.393-.742-1.943-.98Zm49.293-5.023c-1.688 1.875-4.188 4.5-11.125 4.937-3.226.203-4.95.79-6.818 1.426-2.512.854-5.28 1.796-12.307 2.012-7.874.24-12.698-2.313-16.04-4.083-.818-.432-1.547-.818-2.21-1.105-3.6-2-4.786-4.049-5-5.625-1.429-10.513 4.893-14.359 10.323-17.662 1.22-.742 2.395-1.456 3.427-2.213 5.625-4.125 12.5-4.5 17.5-2.625 2.19.822 3.95 1.283 5.74 1.753 2.294.602 4.639 1.218 8.01 2.622 4.8 2 7.667 6.917 8.5 9.125 2.1 6.2 1.5 8.48 0 11.438Z" clip-rule="evenodd"/><path fill="#BC6B0C" d="M46.5 69.614c-9.8.3-14.875-3.73-18.25-5.188 3.208 1.167 10.875 3.15 15.875 1.75 6.25-1.75 7.375-4.125 10.875-4.125s11.25-4.875 11.625-9.625-2.125-9.75 1.625-11.75c4.8 2 7.667 6.917 8.5 9.125 2.1 6.2 1.5 8.48 0 11.438-1.688 1.875-4.188 4.5-11.125 4.937-7.565.477-6.875 3.063-19.125 3.438Z"/><path fill="#F79826" d="M25.375 52.926c.4-3.15 4.417-6.896 6.375-8.375 3.625-2.437 7.125-1.375 5.875 0s-1.625 5.25-2.063 7.313c-.437 2.062-.312 4.375-2.312 6.187-2 1.813-5.125.75-5.625.625s-2.75-1.812-2.25-5.75Z"/><path fill="#FED7A9" fill-rule="evenodd" d="M30.586 48.168a1 1 0 0 1-.14 1.407c-.61.5-1.479 1.285-1.991 2.93a1 1 0 0 1-1.91-.595c.675-2.168 1.87-3.257 2.634-3.883a1 1 0 0 1 1.407.14Z" clip-rule="evenodd"/><path fill="#FFF2E3" d="m74.464 27.108-4.839 4.943.5 2.313 5.732-5.812c1.706.78 3.369.11 3.956-.907.586-1.017.234-2.57-1.907-2.313.439-2.27-2.436-2.308-3.094-1.437-.915 1.212-.75 2.625-.348 3.213Z"/><path fill="#B3987A" fill-rule="evenodd" d="M67.67 32.474a2 2 0 0 1 .526-1.822l3.997-4.083a4.984 4.984 0 0 1-.047-.912 5.263 5.263 0 0 1 1.07-2.967c.557-.737 1.37-1.065 1.962-1.204a4.48 4.48 0 0 1 2.073.008c.702.174 1.516.576 2.084 1.381.14.199.255.407.345.622.785.242 1.472.723 1.93 1.505.73 1.252.492 2.678-.065 3.642-.95 1.648-3.008 2.525-5.105 2.165l-4.891 4.96a2 2 0 0 1-3.379-.983l-.5-2.312Zm8.187-3.922c1.706.78 3.369.11 3.956-.907.374-.649.366-1.515-.244-1.991-.346-.27-.887-.415-1.663-.322.1-.512.03-.91-.146-1.211-.6-1.03-2.438-.9-2.948-.226-.915 1.212-.75 2.625-.348 3.213l-4.839 4.943.5 2.313 5.732-5.812Z" clip-rule="evenodd"/><path fill="#DC8927" d="M52.625 38.676c-4.585 5.72-3.507 9.218-1.423 11.266 5.989 5.886 13.878-1.473 16.51-4.968 2.631-3.495 6.012-11.112 2.775-13.432-2.775-1.99-12.085-.072-17.862 7.134Z"/><path fill="#8B4E05" fill-rule="evenodd" d="M47.413 45.639c.057-2.448 1.208-5.166 3.652-8.214 3.157-3.938 7.267-6.424 10.985-7.662 1.858-.62 3.671-.945 5.27-.96 1.535-.014 3.139.257 4.333 1.113 1.43 1.026 1.998 2.57 2.128 4.035.128 1.44-.14 2.988-.561 4.428-.844 2.884-2.464 5.877-3.91 7.798-1.431 1.899-4.282 4.86-7.693 6.584-1.722.87-3.703 1.483-5.782 1.377-2.13-.11-4.203-.969-6.035-2.77-1.341-1.318-2.446-3.211-2.387-5.73Zm3.789 4.303c-2.084-2.048-3.162-5.547 1.423-11.266 5.777-7.206 15.087-9.125 17.862-7.135 3.237 2.321-.144 9.938-2.775 13.433-2.632 3.495-10.522 10.854-16.51 4.968Z" clip-rule="evenodd"/><path fill="#E79433" d="M52.066 40.955c-1.94 3.379-1.118 5.161.114 6.098 3.54 2.692 4.662-2.6 5.759-4.653 1.096-2.053 5.784-7.227 3.936-8.224-1.585-.855-7.367 2.521-9.81 6.779Z"/><path fill="#FC9821" d="M34.629 56.81c.187.813-.423 1.648-1.363 1.865-.941.217-1.855-.266-2.043-1.08-.188-.813.422-1.648 1.363-1.865.94-.217 1.855.267 2.043 1.08zm5.719-8.231c.187.813-.423 1.648-1.363 1.865-.94.217-1.855-.266-2.043-1.08-.188-.812.423-1.647 1.363-1.864.94-.218 1.855.266 2.043 1.079zm5.949 7.445c.187.813-.423 1.648-1.363 1.865-.941.217-1.855-.266-2.043-1.08-.188-.813.422-1.648 1.363-1.865.94-.217 1.855.267 2.043 1.08zm-6.456 5.94c.131.57-.297 1.157-.958 1.31-.66.152-1.302-.188-1.434-.758-.132-.571.297-1.158.957-1.31.66-.153 1.303.187 1.435.758zm11.545 1.366c.132.57-.296 1.157-.957 1.31-.66.152-1.302-.187-1.434-.758-.132-.571.297-1.158.957-1.31.66-.153 1.303.187 1.434.758zm21.176-12.696c.103.446-.232.904-.747 1.023-.516.119-1.017-.146-1.12-.592-.103-.446.231-.904.747-1.023.516-.12 1.017.146 1.12.592zM66.13 60.03c.103.446-.232.903-.747 1.022-.516.12-1.018-.145-1.12-.591-.103-.446.231-.904.747-1.023.516-.12 1.017.146 1.12.592zm-7.42-1.179c.103.446-.231.904-.747 1.023-.516.12-1.017-.146-1.12-.592-.103-.446.231-.903.747-1.022.516-.12 1.017.145 1.12.591zM47.832 42.544c.132.57-.297 1.157-.957 1.31-.66.152-1.303-.187-1.434-.758-.132-.571.296-1.157.957-1.31.66-.152 1.302.187 1.434.758zm-14.268 7.072c.1.435-.226.881-.728.997-.503.116-.992-.142-1.092-.577-.1-.434.226-.88.729-.997.502-.116.991.143 1.091.577z"/><path fill="#FFAF50" d="M57.742 37.406a1.156 1.156 0 1 0-.696 2.205 1.156 1.156 0 0 0 .696-2.205zm2.905-3.18a1.156 1.156 0 1 0-.696 2.206 1.156 1.156 0 0 0 .696-2.205zm.162 3.378a.734.734 0 1 0-.442 1.4.734.734 0 0 0 .442-1.4zm-6.141.978a.734.734 0 1 0-.443 1.4.734.734 0 0 0 .443-1.4zm8.29-5.346a.734.734 0 1 0-.441 1.4.734.734 0 0 0 .442-1.4zm-.241 2.324a.469.469 0 1 0-.283.894.469.469 0 0 0 .283-.894zm2.032-3.323a.469.469 0 1 0-.282.894.469.469 0 0 0 .282-.894zm-5.975 7.92a.469.469 0 1 0-.282.894.469.469 0 0 0 .282-.894zm-.707-4.402a.469.469 0 1 0-.282.894.469.469 0 0 0 .282-.894zM55.77 40.47a.615.615 0 1 0-.37 1.173.615.615 0 0 0 .37-1.173zm-2.59.388a.366.366 0 1 0-.22.698.366.366 0 0 0 .22-.698zm.677 1.687a.418.418 0 1 0-.252.796.418.418 0 0 0 .252-.796z"/><path fill="#9C5706" d="M71.094 61.006a1.05 1.05 0 1 1-2.1 0 1.05 1.05 0 0 1 2.1 0zm-4.86 2.86a.911.911 0 1 1-1.822 0 .911.911 0 0 1 1.823 0zm10.109-5.757a.911.911 0 1 1-1.823 0 .911.911 0 0 1 1.823 0zm-2.392 2.744a.572.572 0 1 1-1.145 0 .572.572 0 0 1 1.145 0zm2.964-5.421a.572.572 0 1 1-1.145 0 .572.572 0 0 1 1.145 0zm-1.82-1.821a.572.572 0 1 1-1.144 0 .572.572 0 0 1 1.145 0zm-5.77 10.597a.572.572 0 1 1-1.145 0 .572.572 0 0 1 1.145 0zM67.7 61.323a.733.733 0 1 1-1.465 0 .733.733 0 0 1 1.465 0zm6.82-5.73a.733.733 0 1 1-1.465 0 .733.733 0 0 1 1.465 0zm-1.05 2.178a.572.572 0 1 1-1.144 0 .572.572 0 0 1 1.145 0zm-4.145.826a.572.572 0 1 1-1.145 0 .572.572 0 0 1 1.145 0zm1.905-.413a.413.413 0 1 1-.827 0 .413.413 0 0 1 .827 0zm.594 4.77a.413.413 0 1 1-.826 0 .413.413 0 0 1 .826 0zm5.091-9.702a.413.413 0 1 1-.826 0 .413.413 0 0 1 .826 0zM63.402 65.194a.413.413 0 1 1-.826 0 .413.413 0 0 1 .826 0zm3.659-6.025a.413.413 0 1 1-.826 0 .413.413 0 0 1 .826 0zm4.763-2.85a.413.413 0 1 1-.826 0 .413.413 0 0 1 .826 0zm-2.5.412a.413.413 0 1 1-.825 0 .413.413 0 0 1 .826 0z"/></svg>