<svg xmlns="http://www.w3.org/2000/svg" fill="none" viewBox="0 0 48 48" id="fastdelivery"><path fill="#ff542f" fill-rule="evenodd" d="M34 22H36.8915C37.5811 22 38.222 22.3552 38.5875 22.94L42.696 29.5136C42.8947 29.8315 43 30.1988 43 30.5736V36C43 37.1046 42.1046 38 41 38H40H39.9C39.4367 35.7178 37.419 34 35 34C33.8744 34 32.8357 34.3719 32 34.9996V24C32 22.8954 32.8954 22 34 22Z" clip-rule="evenodd" class="colorffbd7f svgShape"></path><path fill="#ff542f" d="M36.2969 27.0156V24.0156C36.2969 24.0156 37.4196 24.476 37.9844 24.9844C38.6863 25.6162 39.2969 27.0156 39.2969 27.0156H36.2969Z" class="color17f2cb svgShape"></path><path fill="#ff542f" fill-rule="evenodd" d="M8 18C8 16.8954 8.89543 16 10 16H30C31.1046 16 32 16.8954 32 18V34.9996C31.0405 35.7204 30.3487 36.7783 30.1005 37.9975C30.0672 37.9992 30.0337 38 30 38H21.9C21.4367 35.7178 19.419 34 17 34C14.581 34 12.5633 35.7178 12.1 38H10C8.89543 38 8 37.1046 8 36V18Z" clip-rule="evenodd" class="color17f2cb svgShape"></path><path fill="#ffae9d" fill-rule="evenodd" d="M7.8125 18.2501C7.8125 16.8694 8.93179 15.7501 10.3125 15.7501H29.6875C29.9636 15.7501 30.1875 15.974 30.1875 16.2501C30.1875 16.5263 29.9636 16.7501 29.6875 16.7501H10.3125C9.48407 16.7501 8.8125 17.4217 8.8125 18.2501V36.2501C8.8125 36.5263 8.58864 36.7501 8.3125 36.7501C8.03636 36.7501 7.8125 36.5263 7.8125 36.2501V18.2501Z" clip-rule="evenodd" class="color9dffee svgShape"></path><path fill="#818181" d="M20 39C20 40.6568 18.6569 42 17 42 15.3431 42 14 40.6568 14 39 14 37.3431 15.3431 36 17 36 18.6569 36 20 37.3431 20 39zM38 39C38 40.6568 36.6569 42 35 42 33.3431 42 32 40.6568 32 39 32 37.3431 33.3431 36 35 36 36.6569 36 38 37.3431 38 39z" class="color06edfc svgShape"></path><path fill="#ffaf9e" fill-rule="evenodd" d="M17.7352 36.8314C17.7352 37.1076 17.5113 37.3314 17.2352 37.3314 16.2276 37.3314 15.4107 38.1483 15.4107 39.1559 15.4107 39.432 15.1869 39.6559 14.9107 39.6559 14.6346 39.6559 14.4107 39.432 14.4107 39.1559 14.4107 37.596 15.6753 36.3314 17.2352 36.3314 17.5113 36.3314 17.7352 36.5553 17.7352 36.8314zM35.7664 36.8314C35.7664 37.1076 35.5426 37.3314 35.2664 37.3314 34.2588 37.3314 33.442 38.1483 33.442 39.1559 33.442 39.432 33.2181 39.6559 32.942 39.6559 32.6658 39.6559 32.442 39.432 32.442 39.1559 32.442 37.596 33.7065 36.3314 35.2664 36.3314 35.5426 36.3314 35.7664 36.5553 35.7664 36.8314z" clip-rule="evenodd" class="color9ef9ff svgShape"></path><path fill="#3d3d3d" fill-rule="evenodd" d="M11.5 16C11.5 15.7239 11.7239 15.5 12 15.5H30C31.3807 15.5 32.5 16.6193 32.5 18V34.5C32.5 34.7761 32.2761 35 32 35 31.7239 35 31.5 34.7761 31.5 34.5V18C31.5 17.1716 30.8284 16.5 30 16.5H12C11.7239 16.5 11.5 16.2761 11.5 16zM7.5 38C7.5 37.7239 7.72386 37.5 8 37.5H12C12.2761 37.5 12.5 37.7239 12.5 38 12.5 38.2761 12.2761 38.5 12 38.5H8C7.72386 38.5 7.5 38.2761 7.5 38zM21.5 38C21.5 37.7239 21.7239 37.5 22 37.5H30C30.2761 37.5 30.5 37.7239 30.5 38 30.5 38.2761 30.2761 38.5 30 38.5H22C21.7239 38.5 21.5 38.2761 21.5 38zM4.5 31C4.5 30.7239 4.72386 30.5 5 30.5H21C21.2761 30.5 21.5 30.7239 21.5 31 21.5 31.2761 21.2761 31.5 21 31.5H5C4.72386 31.5 4.5 31.2761 4.5 31zM8.5 28C8.5 27.7239 8.72386 27.5 9 27.5H23C23.2761 27.5 23.5 27.7239 23.5 28 23.5 28.2761 23.2761 28.5 23 28.5H9C8.72386 28.5 8.5 28.2761 8.5 28z" clip-rule="evenodd" class="color1f0d02 svgShape"></path><path fill="#3d3d3d" fill-rule="evenodd" d="M6.5 25C6.5 24.7239 6.72386 24.5 7 24.5H21C21.2761 24.5 21.5 24.7239 21.5 25 21.5 25.2761 21.2761 25.5 21 25.5H7C6.72386 25.5 6.5 25.2761 6.5 25zM11.5 22C11.5 21.7239 11.7239 21.5 12 21.5H22C22.2761 21.5 22.5 21.7239 22.5 22 22.5 22.2761 22.2761 22.5 22 22.5H12C11.7239 22.5 11.5 22.2761 11.5 22zM31.5 22C31.5 21.7239 31.7239 21.5 32 21.5H36.8915C37.7535 21.5 38.5547 21.944 39.0115 22.675L43.12 29.2486C43.3683 29.6459 43.5 30.105 43.5 30.5736V36C43.5 37.3807 42.3807 38.5 41 38.5H40C39.7239 38.5 39.5 38.2761 39.5 38 39.5 37.7239 39.7239 37.5 40 37.5H41C41.8284 37.5 42.5 36.8284 42.5 36V30.5736C42.5 30.2925 42.421 30.017 42.272 29.7786L38.1635 23.205C37.8894 22.7664 37.4087 22.5 36.8915 22.5H32C31.7239 22.5 31.5 22.2761 31.5 22zM17 36.5C15.6193 36.5 14.5 37.6193 14.5 39 14.5 40.3807 15.6193 41.5 17 41.5 18.3807 41.5 19.5 40.3807 19.5 39 19.5 37.6193 18.3807 36.5 17 36.5zM13.5 39C13.5 37.067 15.067 35.5 17 35.5 18.933 35.5 20.5 37.067 20.5 39 20.5 40.933 18.933 42.5 17 42.5 15.067 42.5 13.5 40.933 13.5 39zM35 36.5C33.6193 36.5 32.5 37.6193 32.5 39 32.5 40.3807 33.6193 41.5 35 41.5 36.3807 41.5 37.5 40.3807 37.5 39 37.5 37.6193 36.3807 36.5 35 36.5zM31.5 39C31.5 37.067 33.067 35.5 35 35.5 36.933 35.5 38.5 37.067 38.5 39 38.5 40.933 36.933 42.5 35 42.5 33.067 42.5 31.5 40.933 31.5 39z" clip-rule="evenodd" class="color1f0d02 svgShape"></path><path fill="#3d3d3d" fill-rule="evenodd" d="M36.2969 23.5156C36.573 23.5156 36.7969 23.7395 36.7969 24.0156V26.0156C36.7969 26.2918 37.0207 26.5156 37.2969 26.5156H39.2969C39.573 26.5156 39.7969 26.7395 39.7969 27.0156 39.7969 27.2918 39.573 27.5156 39.2969 27.5156H37.2969C36.4684 27.5156 35.7969 26.8441 35.7969 26.0156V24.0156C35.7969 23.7395 36.0207 23.5156 36.2969 23.5156zM4.5 42C4.5 41.7239 4.72386 41.5 5 41.5H43C43.2761 41.5 43.5 41.7239 43.5 42 43.5 42.2761 43.2761 42.5 43 42.5H5C4.72386 42.5 4.5 42.2761 4.5 42z" clip-rule="evenodd" class="color1f0d02 svgShape"></path></svg>