<svg xmlns="http://www.w3.org/2000/svg" width="96" height="97" fill="none"><path fill="#5D5757" d="M83.875 48.801c0 19.813-16.062 35.875-35.875 35.875S12.125 68.614 12.125 48.801 28.187 12.926 48 12.926s35.875 16.062 35.875 35.875Z"/><path fill="#2D2929" fill-rule="evenodd" d="M85.875 48.801c0 20.918-16.957 37.875-37.875 37.875S10.125 69.719 10.125 48.801 27.082 10.926 48 10.926s37.875 16.957 37.875 37.875ZM48 84.676c19.813 0 35.875-16.062 35.875-35.875S67.813 12.926 48 12.926 12.125 28.988 12.125 48.801 28.187 84.676 48 84.676Z" clip-rule="evenodd"/><path fill="#848181" fill-rule="evenodd" d="M82.09 55.934a.5.5 0 0 1 .402.581c-.489 2.697-2.484 9.282-6.61 14.171a.5.5 0 0 1-.764-.645c3.974-4.71 5.92-11.11 6.39-13.704a.5.5 0 0 1 .581-.403Z" clip-rule="evenodd"/><path fill="#BAB9B9" fill-rule="evenodd" d="M17.626 31.681a.5.5 0 0 1 .181.684 36.728 36.728 0 0 0-1.33 2.537c-.49 1.029-.928 2.093-1.115 2.889a.5.5 0 1 1-.974-.23c.213-.904.691-2.048 1.185-3.089a37.776 37.776 0 0 1 1.37-2.61.5.5 0 0 1 .683-.18Z" clip-rule="evenodd"/><path fill="#2A2323" d="M79.875 48.801c0 17.604-14.27 31.875-31.875 31.875-17.604 0-31.875-14.27-31.875-31.875 0-17.604 14.27-31.875 31.875-31.875 17.604 0 31.875 14.27 31.875 31.875Z"/><path fill="#141414" fill-rule="evenodd" d="M81.875 48.801c0 18.709-15.166 33.875-33.875 33.875S14.125 67.51 14.125 48.801 29.291 14.926 48 14.926s33.875 15.166 33.875 33.875ZM48 80.676c17.604 0 31.875-14.27 31.875-31.875 0-17.604-14.27-31.875-31.875-31.875-17.604 0-31.875 14.27-31.875 31.875 0 17.604 14.27 31.875 31.875 31.875Z" clip-rule="evenodd"/><path fill="#FEF6DC" d="M37.424 30.108c4.577-1.974 5.792-6.3 10.774-6.18 4.31.104 4.984 2.92 8.977 4.548 4.174 1.701 8.154.41 11.425 3.51 4.106 3.892.428 8.847.879 14.486.372 4.656 3.117 7.747.855 11.833-2.382 4.304-6.716 3.685-10.852 6.348-3.933 2.532-4.934 5.747-9.55 6.505-5.158.848-6.7-3.132-11.629-4.873-4.91-1.733-9.425-.468-12.16-4.9-2.3-3.73-.664-6.625-.348-10.997.494-6.837-3.813-11.18 1.369-15.667 3.62-3.135 5.863-2.717 10.26-4.613Z"/><path fill="#D9CB9B" fill-rule="evenodd" d="M41.34 24.729c1.649-1.445 3.676-2.878 6.906-2.8 2.72.065 4.366 1.039 5.773 2.112.28.213.538.418.787.616.967.769 1.79 1.424 3.124 1.967 1.396.569 2.705.733 4.234.925.43.054.876.11 1.347.178 2.06.297 4.376.828 6.465 2.808 2.755 2.61 2.799 5.649 2.414 8.324a43.323 43.323 0 0 1-.385 2.188 63.844 63.844 0 0 0-.303 1.655c-.206 1.25-.324 2.434-.23 3.61.08.989.286 1.92.545 2.873.087.318.19.674.297 1.044.184.633.38 1.307.524 1.904.512 2.12.714 4.488-.754 7.14-1.521 2.75-3.712 3.9-5.813 4.693-.597.225-1.158.416-1.696.6-1.423.484-2.683.913-4.01 1.769-1.28.823-2.138 1.665-3.083 2.591a50.77 50.77 0 0 1-1.164 1.116c-1.485 1.368-3.233 2.625-6.061 3.09-3.272.538-5.465-.519-7.341-1.78-.47-.316-.901-.625-1.316-.923-1.248-.896-2.352-1.689-3.963-2.258-1.068-.377-2.14-.6-3.252-.787-.316-.053-.65-.105-.992-.159a42.041 42.041 0 0 1-2.411-.424c-2.384-.52-4.784-1.519-6.54-4.365-1.436-2.328-1.635-4.447-1.445-6.493.079-.854.229-1.721.37-2.537l.055-.318c.16-.935.307-1.855.378-2.844.108-1.483-.043-2.858-.28-4.21a60.31 60.31 0 0 0-.4-2.022 36.827 36.827 0 0 1-.377-2.048c-.202-1.375-.278-2.88.17-4.421.458-1.577 1.407-3.005 2.942-4.334 2.042-1.769 3.75-2.564 5.512-3.155a50.4 50.4 0 0 1 1.658-.517c1.103-.33 2.187-.653 3.607-1.265 1.53-.66 2.55-1.589 3.756-2.688.303-.275.616-.56.953-.855Zm.486 2.255c-1.23 1.125-2.537 2.32-4.402 3.124-1.526.658-2.792 1.037-3.947 1.383-2.173.651-3.95 1.183-6.313 3.23-3.325 2.88-2.743 5.7-2.03 9.156.399 1.931.838 4.06.661 6.51-.088 1.218-.278 2.322-.457 3.36-.465 2.69-.855 4.947.806 7.639 1.833 2.97 4.466 3.38 7.482 3.851 1.483.231 3.059.477 4.677 1.048 1.905.673 3.303 1.68 4.6 2.613 2.06 1.483 3.864 2.78 7.03 2.26 2.897-.476 4.37-1.92 6.039-3.556.989-.97 2.046-2.007 3.51-2.949 1.55-.998 3.128-1.535 4.621-2.043 2.49-.847 4.742-1.614 6.231-4.305 1.474-2.663.821-4.904.085-7.431-.394-1.35-.81-2.78-.94-4.402-.162-2.029.21-3.969.562-5.803.626-3.264 1.188-6.191-1.441-8.682-1.968-1.865-4.192-2.141-6.56-2.435-1.57-.195-3.202-.398-4.865-1.076-1.621-.66-2.695-1.517-3.687-2.31-1.452-1.157-2.73-2.176-5.29-2.238-2.952-.071-4.582 1.419-6.371 3.056Z" clip-rule="evenodd"/><path fill="#fff" fill-rule="evenodd" d="M32.594 34.772a1.5 1.5 0 0 1-.502 2.06c-.387.236-1.04.753-1.583 1.457-.541.704-.884 1.478-.884 2.262a1.5 1.5 0 0 1-3 0c0-1.666.72-3.069 1.506-4.091.787-1.022 1.727-1.78 2.402-2.19a1.5 1.5 0 0 1 2.061.502zm11.222-6.88c2.206-1.575 4.611-1.425 5.696-1.084a1.5 1.5 0 0 1-.9 2.861c-.373-.117-1.76-.259-3.053.665a1.5 1.5 0 0 1-1.743-2.441zM40.095 63.59a1.5 1.5 0 0 1 1.93-.88c.748.278 1.924.776 3.067 1.38 1.089.574 2.362 1.353 3.116 2.243a1.5 1.5 0 0 1-2.29 1.938c-.347-.41-1.157-.964-2.226-1.528a24.93 24.93 0 0 0-2.716-1.223 1.5 1.5 0 0 1-.881-1.93zM28.828 50.83a1.5 1.5 0 0 1 .893 1.925c-.388 1.06-.607 4.492 3.814 7.206a1.5 1.5 0 0 1-1.57 2.557c-5.678-3.486-5.923-8.438-5.061-10.794a1.5 1.5 0 0 1 1.924-.893zM67.44 39.095a1.5 1.5 0 0 1 .642 2.022c-.227.438-.574 1.305-.78 2.337-.206 1.037-.247 2.124.017 3.068a1.5 1.5 0 0 1-2.888.81c-.436-1.557-.331-3.157-.07-4.464.26-1.311.701-2.445 1.057-3.132a1.5 1.5 0 0 1 2.022-.64z" clip-rule="evenodd"/><path fill="#FFB72B" d="M57.125 48.801a9.125 9.125 0 1 1-18.25 0 9.125 9.125 0 0 1 18.25 0Z"/><path fill="#FDD483" fill-rule="evenodd" d="M59.125 48.801c0 6.144-4.98 11.125-11.125 11.125-6.144 0-11.125-4.98-11.125-11.125 0-6.144 4.98-11.125 11.125-11.125 6.144 0 11.125 4.98 11.125 11.125ZM48 57.926a9.125 9.125 0 1 0 0-18.25 9.125 9.125 0 0 0 0 18.25Z" clip-rule="evenodd"/><path fill="#F6A326" fill-rule="evenodd" d="M45.339 57.318a9.505 9.505 0 0 0 5.672-17.134 9.125 9.125 0 1 1-6.355 17.11c.225.016.453.024.683.024Z" clip-rule="evenodd"/><path fill="#FFD37E" d="M49.445 46.76c0 2.388-1.839 4.322-4.106 4.322-2.268 0-4.107-1.934-4.107-4.321 0-2.387 1.839-4.322 4.107-4.322 2.267 0 4.106 1.935 4.106 4.322Z"/><path fill="#fff" fill-rule="evenodd" d="M45.317 45.05h.001l.002-.001a3.378 3.378 0 0 0-.584.442c-.335.318-.672.768-.805 1.352a1 1 0 1 1-1.95-.443c.247-1.09.86-1.869 1.38-2.361a5.377 5.377 0 0 1 .925-.703l.073-.04.024-.014.008-.004.004-.002.002-.001.45.87-.45-.87a1 1 0 0 1 .925 1.773.135.135 0 0 1-.005.003Zm.004-.002h.001-.001Z" clip-rule="evenodd"/></svg>