<svg xmlns="http://www.w3.org/2000/svg" viewBox="0 0 24 24"><path fill="#FFC107" d="M23.96 9.057a.75.75 0 0 0-.6-.502l-7.382-1.101-3.33-7.025A.749.749 0 0 0 11.971 0a.79.79 0 0 0-.68.434L8.009 7.48.635 8.632a.749.749 0 0 0-.42 1.267l5.379 5.471-1.239 7.763a.747.747 0 0 0 .74.867.745.745 0 0 0 .365-.095l6.577-3.662 6.603 3.618a.752.752 0 0 0 1.101-.781l-1.294-7.755 5.342-5.506a.749.749 0 0 0 .171-.762z"/><path fill="#FAFAFA" d="M12 17h-1.25a.75.75 0 0 1 0-1.5H12c.271 0 .5-.286.5-.625s-.229-.625-.5-.625h-1.25a.75.75 0 0 1-.75-.75v-2.75a.75.75 0 0 1 .75-.75h2.5a.75.75 0 0 1 0 1.5H11.5v1.25h.5c1.103 0 2 .953 2 2.125S13.103 17 12 17z"/></svg>