<svg xmlns="http://www.w3.org/2000/svg" viewBox="0 0 24 24"><path fill="#FFC107" d="m23.36 8.555-7.382-1.101-3.33-7.025A.749.749 0 0 0 11.971 0h-.003a.75.75 0 0 0-.677.434L8.009 7.48.635 8.632a.749.749 0 0 0-.42 1.267l5.379 5.471-1.239 7.763a.747.747 0 0 0 .74.867.745.745 0 0 0 .365-.095l6.577-3.662 6.603 3.618a.752.752 0 0 0 1.101-.781l-1.294-7.755 5.342-5.506a.748.748 0 0 0-.429-1.264z"/><path fill="#FAFAFA" d="M13.25 17a.75.75 0 0 1-.75-.75v-5.5a.75.75 0 0 1 1.5 0v5.5a.75.75 0 0 1-.75.75z"/><path fill="#FAFAFA" d="M13.25 14.25h-1.786c-.821 0-1.464-.732-1.464-1.667V10.75a.75.75 0 0 1 1.5 0v1.833c0 .118.044.184.057.194l1.693-.027a.75.75 0 0 1 0 1.5z"/></svg>