<svg xmlns="http://www.w3.org/2000/svg" width="96" height="97" fill="none" viewBox="0 0 96 97"><path fill="#A4D31F" d="M47.5251 43.8885C43.2614 49.8705 39.801 49.9671 38.7024 59.5467C37.3785 71.0899 45.6685 80.6685 57.0995 81.9795C68.5305 83.2904 78.6706 76.7373 79.9945 65.1941C81.0931 55.6145 77.4265 54.2822 74.3249 47.273C70.8871 39.5038 74.951 29.3227 62.8773 27.938C49.7688 26.4346 52.5431 36.8482 47.5251 43.8885Z"/><path fill="#5B7C14" fill-rule="evenodd" d="M42.9852 46.0838C43.8991 45.1129 44.842 44.0636 45.8286 42.6793C46.8976 41.1796 47.5869 39.4502 48.2219 37.5534C48.3594 37.1427 48.4971 36.7136 48.6381 36.2743C49.1129 34.7949 49.6245 33.201 50.287 31.8123C51.1878 29.9241 52.4887 28.1181 54.6835 26.9626C56.8465 25.8238 59.5971 25.4648 63.1147 25.8683C66.4317 26.2487 68.9054 27.2663 70.6925 28.9229C72.4726 30.5732 73.3467 32.6515 73.8606 34.7058C74.2412 36.2271 74.4579 37.9062 74.6605 39.4761C74.7224 39.9564 74.7831 40.4265 74.8468 40.8787C75.1324 42.9083 75.4927 44.7635 76.2301 46.43C76.9523 48.0621 77.71 49.3716 78.4561 50.6044C78.5737 50.7987 78.6928 50.9939 78.8127 51.1903C79.4343 52.2088 80.0745 53.2577 80.6093 54.3607C81.9727 57.1722 82.652 60.3066 82.0642 65.4315C80.5849 78.3307 69.2111 85.4655 56.8621 84.0492C44.3817 82.6179 35.1671 72.0872 36.6326 59.3093C37.2158 54.2242 38.4653 51.42 40.2838 49.0876C40.9781 48.1971 41.7553 47.3794 42.5027 46.5931C42.6654 46.422 42.8266 46.2523 42.9852 46.0838ZM43.9873 48.0555C45.069 46.9167 46.2618 45.6609 47.5251 43.8885C49.0832 41.7026 49.89 39.1915 50.6543 36.8128C52.3515 31.5305 53.8388 26.9014 62.8773 27.938C71.1907 28.8915 71.8531 34.0154 72.5817 39.6508C72.9112 42.1998 73.2542 44.8534 74.3249 47.273C75.2286 49.3152 76.1803 50.8755 77.048 52.2983C79.1586 55.7587 80.773 58.4057 79.9945 65.1941C78.6706 76.7373 68.5305 83.2905 57.0995 81.9795C45.6685 80.6685 37.3785 71.0899 38.7024 59.5467C39.4755 52.8055 41.4181 50.7603 43.9873 48.0555Z" clip-rule="evenodd"/><path fill="#92BC1B" fill-rule="evenodd" d="M43.0901 74.567C44.7472 75.5829 46.5774 76.3972 48.5501 76.9685C59.6019 80.1691 70.6936 75.4003 73.9255 64.24C75.8262 57.6767 74.6763 54.7975 73.1729 51.0333C72.5547 49.4857 71.8769 47.7884 71.3267 45.624C70.6749 43.0596 70.7796 40.386 70.8801 37.8178C70.9539 35.9331 71.0255 34.1052 70.7942 32.419C71.9108 34.4626 72.2389 37.0002 72.5816 39.651C72.9111 42.1999 73.2541 44.8535 74.3248 47.2732C75.2285 49.3154 76.1802 50.8757 77.0479 52.2985C79.1585 55.7589 80.7729 58.4058 79.9944 65.1942C78.6705 76.7375 68.5304 83.2906 57.0994 81.9796C51.3681 81.3223 46.4264 78.5866 43.0901 74.567Z" clip-rule="evenodd"/><path fill="#BBEB35" d="M53.0369 46.6496C55.1375 48.1986 54.7678 52.2651 52.2112 55.7324 49.6545 59.1998 45.879 60.755 43.7783 59.2061 41.6777 57.6571 42.0474 53.5906 44.6041 50.1233 47.1607 46.6559 50.9362 45.1007 53.0369 46.6496zM59.8476 29.8354C60.5736 30.6548 60.0655 32.2905 58.7129 33.4887 57.3603 34.687 55.6753 34.994 54.9494 34.1746 54.2234 33.3551 54.7315 31.7194 56.0841 30.5212 57.4367 29.323 59.1217 29.0159 59.8476 29.8354z"/><path fill="#fff" fill-rule="evenodd" d="M48.2582 51.5587C49.0918 52.3518 49.1247 53.6705 48.3317 54.5041C47.9416 54.9141 47.7188 55.2659 47.5979 55.5517C47.1497 56.6114 45.9273 57.1071 44.8676 56.6589C43.8079 56.2107 43.3122 54.9883 43.7604 53.9286C44.1171 53.0851 44.6564 52.3222 45.3128 51.6322C46.1059 50.7986 47.4246 50.7657 48.2582 51.5587Z" clip-rule="evenodd"/><path fill="#87D623" d="M79.1461 17.4591C79.1461 17.4591 75.0366 23.0903 71.1673 24.5952C67.298 26.1002 62.7989 23.8172 62.7989 23.8172C62.7989 23.8172 64.5731 19.0942 68.4424 17.5893C72.3117 16.0844 79.1461 17.4591 79.1461 17.4591Z"/><path fill="#156319" fill-rule="evenodd" d="M80.8291 18.6872L79.1462 17.4591L79.557 15.4167C80.2534 15.5567 80.8304 16.0419 81.0878 16.7039C81.3453 17.3659 81.2478 18.1135 80.8291 18.6872ZM76.7822 17.1038C78.1862 17.266 79.1462 17.4591 79.1462 17.4591C79.1462 17.4591 78.569 18.2501 77.6435 19.3184C76.0996 21.1005 73.5865 23.6544 71.1674 24.5953C67.2981 26.1002 62.799 23.8172 62.799 23.8172C62.799 23.8172 64.5732 19.0943 68.4425 17.5894C70.8616 16.6484 74.4398 16.8332 76.7822 17.1038ZM62.799 23.8172C60.8487 23.0846 60.8489 23.084 60.8492 23.0834L60.8497 23.082L60.8508 23.0791L60.8536 23.0717L60.8612 23.0519C60.8672 23.0365 60.875 23.0165 60.8847 22.9922C60.904 22.9437 60.9308 22.8781 60.9651 22.7973C61.0336 22.6359 61.1327 22.4129 61.2632 22.1446C61.5229 21.6105 61.9138 20.8833 62.4449 20.0993C63.48 18.5711 65.1876 16.62 67.6873 15.6477C70.0838 14.7156 73.1618 14.7235 75.3928 14.8818C76.5561 14.9643 77.587 15.0964 78.3274 15.2076C78.6987 15.2634 78.9995 15.3144 79.2105 15.352C79.316 15.3708 79.3993 15.3863 79.4578 15.3974L79.5268 15.4107L79.5469 15.4147L79.5554 15.4164L79.557 15.4167C79.5574 15.4168 79.557 15.4167 79.1462 17.4591C80.8291 18.6872 80.8293 18.6869 80.8291 18.6872L80.8281 18.6885L80.8229 18.6956L80.8108 18.712L80.7689 18.7685C80.7333 18.8162 80.6824 18.8839 80.6173 18.9691C80.4872 19.1393 80.2998 19.3802 80.0639 19.6721C79.5932 20.2544 78.9224 21.0484 78.1206 21.8952C76.5829 23.5193 74.3191 25.6048 71.9226 26.5369C69.4229 27.5092 66.8457 27.2246 65.05 26.7974C64.1288 26.5782 63.3493 26.3063 62.797 26.0881C62.5195 25.9784 62.2958 25.881 62.1362 25.8083C62.0563 25.7719 61.9922 25.7416 61.9452 25.7189C61.9217 25.7075 61.9024 25.6981 61.8875 25.6907L61.8685 25.6813L61.8615 25.6778L61.8574 25.6757C61.8568 25.6754 61.8562 25.6751 62.799 23.8172ZM60.8487 23.0846L62.799 23.8172L61.8562 25.6751C60.9093 25.1946 60.4753 24.0787 60.8487 23.0846Z" clip-rule="evenodd"/><path fill="#79C01E" d="M70.9152 24.004C74.2049 22.7245 77.773 18.1273 77.773 18.1273C70.5128 19.1158 65.4821 22.143 63.8743 23.533C63.8743 23.533 67.6255 25.2835 70.9152 24.004Z"/><path fill="#8C5936" d="M57.8255 17.4773C59.0959 18.1808 61.7466 23.7472 62.3469 26.4892C62.397 26.718 63.028 26.5572 62.987 26.3576C62.8987 23.8803 62.0921 17.8666 60.6923 15.7327C58.7763 15.6274 57.8913 16.9439 57.8255 17.4773Z"/><path fill="#583A24" fill-rule="evenodd" d="M56.7112 19.2376C56.0336 18.8089 55.6589 18.0254 55.7578 17.2224C55.8739 16.281 56.4887 15.3708 57.248 14.7513C58.1082 14.0495 59.3158 13.5706 60.8065 13.6524C61.4672 13.6887 62.0714 14.0367 62.4343 14.5899C62.948 15.3731 63.3296 16.3743 63.6226 17.3398C63.9256 18.3384 64.1768 19.4469 64.3795 20.5346C64.7734 22.6478 65.0092 24.8196 65.0653 26.1845C65.1782 27.333 64.3632 28.014 64.14 28.177C63.7969 28.4275 63.4374 28.5524 63.1682 28.6143C62.9049 28.6749 62.4978 28.7284 62.0396 28.6308C61.6012 28.5373 60.5765 28.1441 60.3118 26.9347C60.0634 25.8005 59.3326 23.8957 58.4681 22.1384C58.0436 21.2755 57.6168 20.5097 57.243 19.9415C57.0554 19.6563 56.9013 19.4518 56.7867 19.3198C56.7528 19.2807 56.7277 19.2542 56.7112 19.2376ZM62.987 26.3576C62.9869 26.3548 62.9868 26.3519 62.9867 26.3491C62.9692 25.8638 62.9242 25.2439 62.8528 24.5447C62.7241 23.2844 62.5094 21.7664 62.2143 20.3142C61.8356 18.4511 61.3244 16.6963 60.6923 15.7326C60.1336 15.7019 59.6626 15.7921 59.274 15.9485C58.8611 16.1147 58.5412 16.3557 58.3081 16.6058C58.0081 16.9276 57.8517 17.2647 57.8255 17.4773C58.4343 17.8144 59.36 19.2681 60.2252 20.9927C60.8304 22.1991 61.406 23.538 61.8228 24.7199C62.0374 25.3285 62.2099 25.8955 62.3226 26.3813C62.331 26.4177 62.3391 26.4537 62.3469 26.4892C62.397 26.7179 63.0281 26.5571 62.987 26.3576ZM60.902 26.3523C60.9019 26.4856 60.9156 26.6272 60.9464 26.7771C60.923 26.6633 60.9092 26.5478 60.905 26.4318C60.9041 26.4058 60.9031 26.3793 60.902 26.3523Z" clip-rule="evenodd"/><path fill="#C27A49" d="M61.0988 16.0078C61.3909 16.5307 60.8887 17.3674 59.9771 17.8765C59.0656 18.3856 58.0898 18.3744 57.7977 17.8514C57.5056 17.3284 58.0078 16.4917 58.9194 15.9826C59.831 15.4735 60.8067 15.4848 61.0988 16.0078Z"/><path fill="#83A918" d="M72.4847 59.1271C72.3707 60.1211 71.4725 60.8344 70.4785 60.7204 69.4845 60.6064 68.7711 59.7082 68.8851 58.7142 68.9991 57.7202 69.8973 57.0068 70.8913 57.1208 71.8853 57.2348 72.5987 58.1331 72.4847 59.1271zM77.4712 63.3459C77.3572 64.3399 76.459 65.0533 75.465 64.9393 74.471 64.8253 73.7576 63.9271 73.8716 62.9331 73.9856 61.9391 74.8838 61.2257 75.8778 61.3397 76.8718 61.4537 77.5852 62.3519 77.4712 63.3459zM77.2422 57.3933C77.1567 58.1388 76.483 58.6739 75.7375 58.5884 74.992 58.5029 74.457 57.8292 74.5425 57.0837 74.628 56.3382 75.3016 55.8032 76.0471 55.8887 76.7926 55.9742 77.3277 56.6478 77.2422 57.3933zM76.7488 69.6451C76.6348 70.6391 75.7366 71.3525 74.7426 71.2385 73.7486 71.1245 73.0352 70.2263 73.1492 69.2323 73.2632 68.2383 74.1614 67.5249 75.1554 67.6389 76.1494 67.7529 76.8628 68.6511 76.7488 69.6451zM71.7622 65.4264C71.6482 66.4204 70.75 67.1338 69.756 67.0198 68.762 66.9058 68.0486 66.0076 68.1626 65.0136 68.2766 64.0196 69.1748 63.3062 70.1688 63.4202 71.1628 63.5342 71.8762 64.4324 71.7622 65.4264zM72.53 74.6318C72.416 75.6258 71.5178 76.3392 70.5238 76.2252 69.5298 76.1112 68.8164 75.213 68.9304 74.219 69.0444 73.225 69.9426 72.5116 70.9366 72.6256 71.9306 72.7396 72.644 73.6378 72.53 74.6318zM67.4402 71.3128C67.3262 72.3068 66.428 73.0202 65.434 72.9062 64.44 72.7922 63.7266 71.894 63.8406 70.9 63.9546 69.906 64.8528 69.1926 65.8468 69.3066 66.8408 69.4206 67.5542 70.3188 67.4402 71.3128zM67.5661 78.1653C67.4806 78.9108 66.8069 79.4458 66.0614 79.3603 65.3159 79.2748 64.7809 78.6011 64.8664 77.8556 64.9519 77.1101 65.6255 76.5751 66.371 76.6606 67.1165 76.7461 67.6515 77.4198 67.5661 78.1653z"/><path fill="#10BC17" d="M39.6098 40.7625C39.6098 40.7625 39.4001 47.4867 36.8443 50.4742C33.7638 54.075 27.8335 52.7205 27.8335 52.7205C27.8335 52.7205 27.3931 47.3967 30.8964 43.8392C33.5913 41.1028 39.6098 40.7625 39.6098 40.7625Z"/><path fill="#156319" fill-rule="evenodd" d="M41.1594 40.8107L39.6097 40.7624L39.5222 39.2145C39.9563 39.1899 40.3808 39.3488 40.6921 39.6523C41.0034 39.9559 41.173 40.3762 41.1594 40.8107ZM38.0496 40.9369C38.9857 40.7977 39.6097 40.7624 39.6097 40.7624C39.6097 40.7624 39.5904 41.3809 39.4923 42.326C39.2668 44.4972 38.625 48.3926 36.8443 50.4741C33.7638 54.0749 27.8335 52.7204 27.8335 52.7204C27.8335 52.7204 27.393 47.3966 30.8964 43.8392C32.7235 41.9838 36.0785 41.23 38.0496 40.9369ZM27.8335 52.7204C26.2883 52.8483 26.2883 52.8477 26.2882 52.8471L26.2881 52.8459L26.2879 52.843L26.2873 52.8357L26.2858 52.8154C26.2847 52.7992 26.2832 52.778 26.2817 52.7518C26.2786 52.6995 26.2749 52.6275 26.2719 52.5376C26.2657 52.3579 26.2619 52.1057 26.2694 51.7954C26.2844 51.1767 26.3448 50.3165 26.5265 49.3324C26.8866 47.3817 27.7455 44.829 29.7917 42.7513C31.4647 41.0524 34.0154 40.2045 35.9133 39.7643C36.8999 39.5355 37.7921 39.399 38.4378 39.3195C38.7616 39.2797 39.0261 39.2538 39.2126 39.2377C39.3059 39.2296 39.3799 39.224 39.4322 39.2203C39.4584 39.2185 39.4792 39.2171 39.4943 39.2162L39.5126 39.215L39.5206 39.2146L39.5222 39.2145C39.5226 39.2144 39.5222 39.2145 39.6097 40.7624C41.1594 40.8107 41.1594 40.8104 41.1594 40.8107L41.1593 40.8142L41.1591 40.8201L41.1584 40.8392C41.1578 40.8551 41.157 40.8774 41.1557 40.9056C41.1533 40.9621 41.1495 41.0426 41.1437 41.1447C41.1322 41.3487 41.1129 41.6393 41.0815 41.9957C41.0189 42.7066 40.9075 43.689 40.7111 44.7741C40.3339 46.8581 39.5897 49.65 38.0224 51.482C36.0854 53.7463 33.3271 54.3728 31.2761 54.4953C30.229 54.5578 29.2972 54.4941 28.6279 54.4157C28.2916 54.3764 28.0171 54.3327 27.822 54.2979C27.7244 54.2805 27.6463 54.2652 27.59 54.2537C27.5619 54.248 27.5391 54.2431 27.5221 54.2394L27.5008 54.2348L27.4934 54.2331L27.4893 54.2322C27.4888 54.2321 27.4882 54.2319 27.8335 52.7204ZM26.2883 52.8483L27.8335 52.7204L27.4882 54.2319C26.8295 54.0815 26.344 53.5217 26.2883 52.8483Z" clip-rule="evenodd"/><path fill="#07A00E" d="M35.8017 50.2119C37.9606 48.0196 38.5637 42.5161 38.5637 42.5161C33.0398 45.7928 30.5921 50.451 29.8533 52.1731C29.8533 52.1731 33.6427 52.4041 35.8017 50.2119Z"/><path fill="#13CA1B" d="M16.1459 48.8363C16.1459 48.8363 20.7948 46.5737 23.7412 47.2436C27.2924 48.051 28.4923 52.5694 28.4923 52.5694C28.4923 52.5694 25.0285 54.7733 21.3555 53.6628C18.5301 52.8085 16.1459 48.8363 16.1459 48.8363Z"/><path fill="#156319" fill-rule="evenodd" d="M15.4674 47.4424L16.1459 48.8365L14.8166 49.6344C14.5928 49.2616 14.5359 48.812 14.6596 48.3952C14.7834 47.9783 15.0765 47.6327 15.4674 47.4424ZM17.0426 50.1295C16.4786 49.3906 16.1459 48.8365 16.1459 48.8365C16.1459 48.8365 16.72 48.5571 17.5925 48.2237C19.203 47.6084 21.8302 46.8092 23.7413 47.2437C27.2925 48.0511 28.4924 52.5696 28.4924 52.5696C28.4924 52.5696 25.0285 54.7735 21.3555 53.6629C19.5855 53.1277 17.9886 51.3688 17.0426 50.1295ZM28.4924 52.5696C29.3247 53.8777 29.3242 53.878 29.3237 53.8783L29.3227 53.8789L29.3204 53.8804L29.3148 53.8839L29.2998 53.8933C29.288 53.9006 29.2729 53.9099 29.2544 53.9211C29.2174 53.9434 29.1671 53.9732 29.1043 54.009C28.9788 54.0806 28.8025 54.1767 28.5819 54.2859C28.1423 54.5037 27.5178 54.778 26.7618 55.0132C25.2668 55.4782 23.1451 55.8238 20.9068 55.147C19.05 54.5856 17.5046 53.086 16.5175 51.9424C15.9987 51.3413 15.5791 50.7727 15.2888 50.3544C15.1431 50.1444 15.0285 49.97 14.9487 49.8457C14.9088 49.7834 14.8775 49.7336 14.8554 49.6978L14.829 49.6549L14.821 49.6418L14.8184 49.6373L14.8166 49.6344C14.8164 49.6341 14.8166 49.6344 16.1459 48.8365C15.4674 47.4424 15.4672 47.4425 15.4674 47.4424L15.4703 47.441L15.4749 47.4388L15.489 47.432L15.5372 47.4091C15.5778 47.3899 15.6354 47.363 15.7084 47.3297C15.8543 47.2632 16.0624 47.1709 16.3198 47.0631C16.833 46.8484 17.5517 46.5686 18.373 46.31C19.9321 45.8191 22.1778 45.2982 24.085 45.7319C26.4558 46.2709 27.9365 48.0196 28.7754 49.4073C29.206 50.1197 29.5047 50.7963 29.6963 51.2938C29.7927 51.5441 29.8635 51.7533 29.9116 51.9045C29.9356 51.9802 29.954 52.0416 29.9671 52.0868C29.9737 52.1093 29.9789 52.1279 29.9828 52.1421L29.9878 52.1602L29.9896 52.1667L29.9906 52.1706C29.9907 52.1711 29.9909 52.1716 28.4924 52.5696ZM29.3247 53.8777L28.4924 52.5696L29.9909 52.1716C30.1643 52.8247 29.8948 53.5149 29.3247 53.8777Z" clip-rule="evenodd"/><path fill="#33ED3B" fill-rule="evenodd" d="M16.8563 48.5194C16.4117 48.7071 16.146 48.8364 16.146 48.8364C16.146 48.8364 18.5302 52.8086 21.3555 53.6629C25.0285 54.7734 28.4924 52.5695 28.4924 52.5695C28.4924 52.5695 28.2062 51.492 27.4999 50.2954C26.3492 50.949 23.8487 52.0752 21.1186 51.4459C19.4706 51.066 17.8985 49.6551 16.8563 48.5194Z" clip-rule="evenodd"/><path fill="#FE9F81" d="M47.7295 65.0471C49.5907 74.3212 43.5814 83.3482 34.3072 85.2095C25.0331 87.0707 16.0061 81.0613 14.1448 71.7872C12.2836 62.5131 18.293 53.486 27.5671 51.6248C36.8412 49.7636 45.8683 55.7729 47.7295 65.0471Z"/><path fill="#AB442D" fill-rule="evenodd" d="M49.2496 64.7419C51.2794 74.8556 44.726 84.6998 34.6123 86.7296C24.4986 88.7593 14.6545 82.2059 12.6247 72.0922C10.595 61.9786 17.1483 52.1344 27.262 50.1046C37.3757 48.0749 47.2199 54.6283 49.2496 64.7419ZM34.3073 85.2094C43.5814 83.3482 49.5907 74.3212 47.7295 65.047C45.8683 55.7729 36.8413 49.7635 27.5671 51.6248C18.293 53.486 12.2836 62.513 14.1449 71.7872C16.0061 81.0613 25.0331 87.0707 34.3073 85.2094Z" clip-rule="evenodd"/><path fill="#FF7E6C" fill-rule="evenodd" d="M41.1703 82.1561C36.0135 82.3939 30.022 78.4762 26.3759 71.962C21.8818 63.933 22.6131 54.9295 27.9443 51.5534C27.8186 51.5757 27.6929 51.5995 27.5671 51.6248C18.293 53.486 12.2836 62.513 14.1449 71.7872C16.0061 81.0613 25.0331 87.0706 34.3073 85.2094C36.8786 84.6934 39.199 83.6264 41.1703 82.1561Z" clip-rule="evenodd"/><path fill="#FEC0AC" d="M32.0937 53.337C34.3568 54.023 35.3572 57.331 34.3282 60.7256C33.2992 64.1202 30.6304 66.316 28.3673 65.63C26.1042 64.9439 25.1038 61.6359 26.1329 58.2413C27.1619 54.8467 29.8306 52.651 32.0937 53.337Z"/><path fill="#fff" fill-rule="evenodd" d="M28.9599 58.5876C29.7877 58.8067 30.2812 59.6553 30.0622 60.4831C29.9127 61.0481 29.8908 61.582 29.9818 62.1006C30.1298 62.944 29.5661 63.7477 28.7227 63.8957C27.8793 64.0438 27.0756 63.4801 26.9276 62.6367C26.7553 61.6551 26.8058 60.6675 27.0645 59.6899C27.2835 58.8621 28.1321 58.3686 28.9599 58.5876Z" clip-rule="evenodd"/><path fill="#AB442D" fill-rule="evenodd" d="M27.3741 51.2233C29.3814 49.9832 31.6959 49.7483 33.6866 50.0126C34.111 50.069 34.4094 50.4587 34.3531 50.8831C34.2967 51.3075 33.907 51.6059 33.4825 51.5496C31.7435 51.3187 29.814 51.5384 28.189 52.5423C26.5856 53.5328 25.182 55.346 24.5746 58.4995C23.3413 64.9035 25.8734 70.124 27.2334 71.8702C27.4965 72.2079 27.4359 72.695 27.0981 72.9581C26.7604 73.2212 26.2733 73.1606 26.0102 72.8229C24.4286 70.7922 21.7192 65.1277 23.0522 58.2063C23.728 54.6971 25.3451 52.4768 27.3741 51.2233Z" clip-rule="evenodd"/><path fill="#EC6B59" d="M32.6095 81.6601C33.216 82.3091 33.1814 83.3269 32.5324 83.9333 31.8834 84.5398 30.8656 84.5053 30.2591 83.8562 29.6527 83.2072 29.6872 82.1894 30.3363 81.583 30.9853 80.9765 32.0031 81.011 32.6095 81.6601zM37.4549 80.1347C38.0614 80.7837 38.0268 81.8015 37.3778 82.4079 36.7288 83.0144 35.711 82.9799 35.1045 82.3308 34.4981 81.6818 34.5326 80.664 35.1817 80.0576 35.8307 79.4511 36.8485 79.4856 37.4549 80.1347zM34.3532 76.413C34.8239 76.9167 34.7971 77.7065 34.2934 78.1772 33.7897 78.6478 32.9999 78.621 32.5292 78.1173 32.0586 77.6136 32.0854 76.8238 32.5891 76.3532 33.0928 75.8825 33.8826 75.9093 34.3532 76.413zM40.5592 78.7351C41.0299 79.2388 41.0031 80.0287 40.4994 80.4993 39.9957 80.9699 39.2059 80.9432 38.7352 80.4395 38.2646 79.9358 38.2914 79.1459 38.7951 78.6753 39.2987 78.2047 40.0886 78.2315 40.5592 78.7351zM29.633 77.5661C30.1036 78.0698 30.0768 78.8596 29.5731 79.3302 29.0694 79.8009 28.2796 79.7741 27.809 79.2704 27.3383 78.7667 27.3651 77.9769 27.8688 77.5062 28.3725 77.0356 29.1623 77.0624 29.633 77.5661zM23.0705 76.0265C23.5411 76.5302 23.5143 77.3201 23.0106 77.7907 22.5069 78.2613 21.7171 78.2345 21.2465 77.7309 20.7758 77.2272 20.8026 76.4373 21.3063 75.9667 21.81 75.496 22.5998 75.5228 23.0705 76.0265zM41.7697 74.6458C42.2403 75.1495 42.2135 75.9393 41.7098 76.41 41.2061 76.8806 40.4163 76.8538 39.9457 76.3501 39.475 75.8464 39.5018 75.0566 40.0055 74.5859 40.5092 74.1153 41.299 74.1421 41.7697 74.6458zM27.6958 81.6538C28.1665 82.1575 28.1397 82.9474 27.636 83.418 27.1323 83.8886 26.3425 83.8619 25.8718 83.3582 25.4012 82.8545 25.428 82.0646 25.9317 81.594 26.4353 81.1234 27.2252 81.1502 27.6958 81.6538zM26.0356 78.1889C26.2734 78.4435 26.2599 78.8427 26.0053 79.0805 25.7507 79.3184 25.3515 79.3049 25.1137 79.0503 24.8758 78.7957 24.8894 78.3965 25.1439 78.1587 25.3985 77.9208 25.7977 77.9343 26.0356 78.1889zM19.339 76.2397C19.5769 76.4943 19.5633 76.8935 19.3088 77.1313 19.0542 77.3692 18.655 77.3556 18.4171 77.1011 18.1793 76.8465 18.1928 76.4473 18.4474 76.2094 18.702 75.9716 19.1012 75.9851 19.339 76.2397zM43.9688 76.8315C44.2066 77.0861 44.1931 77.4852 43.9385 77.7231 43.684 77.961 43.2848 77.9474 43.0469 77.6929 42.809 77.4383 42.8226 77.0391 43.0771 76.8012 43.3317 76.5634 43.7309 76.5769 43.9688 76.8315zM38.1907 75.6191C38.4286 75.8737 38.415 76.2728 38.1605 76.5107 37.9059 76.7486 37.5067 76.735 37.2688 76.4805 37.031 76.2259 37.0445 75.8267 37.2991 75.5888 37.5536 75.351 37.9528 75.3645 38.1907 75.6191zM44.8788 73.4861C45.1167 73.7407 45.1031 74.1399 44.8486 74.3778 44.594 74.6156 44.1948 74.6021 43.9569 74.3475 43.7191 74.093 43.7326 73.6938 43.9872 73.4559 44.2417 73.218 44.6409 73.2316 44.8788 73.4861zM23.7184 79.4523C24.1112 79.8727 24.0889 80.532 23.6685 80.9248 23.2481 81.3176 22.5888 81.2953 22.196 80.8749 21.8032 80.4545 21.8255 79.7952 22.246 79.4024 22.6664 79.0096 23.3256 79.0319 23.7184 79.4523z"/></svg>