<svg xmlns="http://www.w3.org/2000/svg" viewBox="0 0 24 24"><path fill="#FFC107" d="m23.36 8.555-7.382-1.101-3.33-7.025a.749.749 0 0 0-1.357.005L8.009 7.48.635 8.632a.749.749 0 0 0-.42 1.267l5.379 5.471-1.239 7.763a.747.747 0 0 0 .74.867.745.745 0 0 0 .365-.095l6.577-3.662 6.603 3.618a.752.752 0 0 0 1.101-.781l-1.294-7.755 5.342-5.506a.748.748 0 0 0-.429-1.264z"/><path fill="#FAFAFA" d="M11.75 17a.75.75 0 0 1-.75-.75v-4.793A.75.75 0 0 1 11.25 10h.5a.75.75 0 0 1 .75.75v5.5a.75.75 0 0 1-.75.75z"/></svg>