<svg xmlns="http://www.w3.org/2000/svg" fill="none" viewBox="0 0 48 48" id="workingloader"><path fill="#ff542f" d="M19.325 10.932a1 1 0 0 1 .707-1.225l13.679-3.665a1 1 0 0 1 1.224.707L38.6 20.428a1 1 0 0 1-.707 1.225l-13.678 3.665a1 1 0 0 1-1.225-.707l-3.665-13.679Z" class="colorffbd7f svgShape"></path><path fill="#ffc3b6" d="M15.805 8.402a3.402 3.402 0 1 1-6.805 0 3.402 3.402 0 0 1 6.805 0Z" class="colorffddb6 svgShape"></path><path fill="#ffe5df" fill-rule="evenodd" d="M13.133 5.886a.5.5 0 0 1-.5.5 2.391 2.391 0 0 0-2.391 2.39.5.5 0 1 1-1 0 3.391 3.391 0 0 1 3.39-3.39.5.5 0 0 1 .5.5Z" clip-rule="evenodd" class="colorfff0df svgShape"></path><path fill="#ffc5b8" fill-rule="evenodd" d="M19.777 10.785a.5.5 0 0 1 .354-.612l12.614-3.38a.5.5 0 0 1 .259.966l-12.131 3.25 2.053 7.664a.5.5 0 1 1-.965.26l-2.183-8.148Z" clip-rule="evenodd" class="colorffdab8 svgShape"></path><path fill="#818181" d="M18.409 22.235a2.064 2.064 0 0 0-1.908 2.209l.67 9.153-6.388 6.388a2.064 2.064 0 1 0 2.918 2.918l7.005-7.004c.367-.367.567-.84.6-1.32.035-.18.048-.366.034-.557l-.723-9.879a2.064 2.064 0 0 0-2.208-1.908Z" class="color06edfc svgShape"></path><path fill="#818181" d="M12.989 15.889a2.126 2.126 0 0 1 3.984-1.487l3.406 9.127 7.497 6.094c.345.28.579.646.696 1.042.04.095.072.195.098.298l2.47 9.903a2.126 2.126 0 1 1-4.127 1.03l-2.343-9.398-7.397-6.013a2.117 2.117 0 0 1-.582-.741 2.137 2.137 0 0 1-.134-.292l-3.568-9.563Z" class="color06edfc svgShape"></path><path fill="#818181" d="M13.454 13.552a2.126 2.126 0 0 0 .098 3.006L21 23.535c.427.4.975.59 1.517.573.254.014.515-.019.772-.103l9.7-3.178a2.126 2.126 0 1 0-1.324-4.041l-8.63 2.827-6.577-6.16a2.126 2.126 0 0 0-3.005.098Z" class="color06edfc svgShape"></path><path fill="#ffaf9e" fill-rule="evenodd" d="M14.518 13.14a.5.5 0 0 1 .023.706 1.476 1.476 0 0 0 .068 2.086l6.922 6.485a1.47 1.47 0 0 0 1.094.399c.176.009.357-.014.536-.072l9.014-2.953a.5.5 0 1 1 .311.95l-9.013 2.953a2.471 2.471 0 0 1-.88.121 2.47 2.47 0 0 1-1.745-.668l-6.922-6.485a2.476 2.476 0 0 1-.115-3.5.5.5 0 0 1 .707-.023Z" clip-rule="evenodd" class="color9ef9ff svgShape"></path><path fill="#ffaf9e" fill-rule="evenodd" d="M13.607 14.827a.5.5 0 0 1 .643.293l3.568 9.563a1.632 1.632 0 0 0 .118.254c.1.212.25.407.445.566l7.397 6.013a.5.5 0 0 1 .17.267l2.343 9.398a.5.5 0 1 1-.97.242l-2.303-9.236-7.268-5.908a2.62 2.62 0 0 1-.711-.9 2.654 2.654 0 0 1-.158-.346l-3.568-9.563a.5.5 0 0 1 .294-.643zm4.386 18.948a.5.5 0 0 1 0 .707l-6.388 6.388a.5.5 0 1 1-.707-.707l6.387-6.388a.5.5 0 0 1 .708 0z" clip-rule="evenodd" class="color9ef9ff svgShape"></path><path fill="#3d3d3d" fill-rule="evenodd" d="M18.842 11.062a1.5 1.5 0 0 1 1.06-1.838l13.68-3.665a1.5 1.5 0 0 1 1.836 1.061l3.665 13.678a1.5 1.5 0 0 1-1.06 1.838L24.344 25.8a1.509 1.509 0 0 1-1.84-1.07l-.13-.489a.5.5 0 1 1 .966-.258l.13.487a.509.509 0 0 0 .616.364l13.678-3.665a.5.5 0 0 0 .353-.613L34.453 6.88a.5.5 0 0 0-.612-.354L20.162 10.19a.5.5 0 0 0-.354.613l1.833 6.839a.5.5 0 0 1-.966.259l-1.833-6.84zM12.402 5.5a2.902 2.902 0 1 0 0 5.805 2.902 2.902 0 0 0 0-5.805zM8.5 8.402a3.902 3.902 0 1 1 7.805 0 3.902 3.902 0 0 1-7.805 0zm8.047 16.676a.5.5 0 0 1 .536.462l.586 8.021a.5.5 0 0 1-.145.39l-6.388 6.388a1.564 1.564 0 0 0 2.212 2.21l7.004-7.003c.279-.28.43-.636.454-1a.505.505 0 0 1 .009-.065c.027-.135.037-.277.026-.422l-.322-4.405a.5.5 0 0 1 .997-.073l.322 4.405c.017.225.003.446-.036.66a2.555 2.555 0 0 1-.743 1.607l-7.004 7.004a2.564 2.564 0 0 1-3.626-3.626l6.226-6.225-.57-7.793a.5.5 0 0 1 .462-.535z" clip-rule="evenodd" class="color1f0d02 svgShape"></path><path fill="#3d3d3d" fill-rule="evenodd" d="M14.672 12.864a.5.5 0 0 1-.294.643c-.812.303-1.246 1.334-.92 2.207l3.567 9.563a1.65 1.65 0 0 0 .119.253c.1.213.248.408.445.567l7.396 6.013a.5.5 0 0 1 .17.267l2.343 9.397a1.626 1.626 0 0 0 3.156-.787l-2.469-9.903a1.656 1.656 0 0 0-.075-.229.485.485 0 0 1-.017-.047 1.617 1.617 0 0 0-.532-.797l-7.498-6.094a.5.5 0 0 1-.153-.213l-.324-.864a.5.5 0 0 1 .937-.351l.276.737 7.392 6.01c.418.34.706.782.853 1.262.045.11.082.225.111.344l2.47 9.903a2.626 2.626 0 0 1-5.097 1.271l-2.303-9.235-7.267-5.908a2.618 2.618 0 0 1-.712-.901 2.62 2.62 0 0 1-.158-.345l-3.568-9.563c-.495-1.328.12-2.975 1.508-3.493a.5.5 0 0 1 .644.293Z" clip-rule="evenodd" class="color1f0d02 svgShape"></path><path fill="#3d3d3d" fill-rule="evenodd" d="M16.117 13.819a1.626 1.626 0 0 0-2.223 2.374l7.449 6.978a1.62 1.62 0 0 0 1.2.439c.195.01.394-.015.591-.08l9.7-3.177a1.626 1.626 0 1 0-1.012-3.09l-8.63 2.826a.5.5 0 0 1-.498-.11l-6.576-6.16Zm-3.028-.609a2.626 2.626 0 0 1 3.712-.121l6.36 5.958 8.35-2.735a2.627 2.627 0 0 1 1.635 4.992l-9.7 3.177c-.31.101-.625.142-.934.129a2.62 2.62 0 0 1-1.853-.71l-7.449-6.978a2.626 2.626 0 0 1-.121-3.712Z" clip-rule="evenodd" class="color1f0d02 svgShape"></path></svg>