<svg xmlns="http://www.w3.org/2000/svg" width="96" height="97" fill="none"><path fill="#FFF2E3" d="m68.93 24.503-9.603 8.936 1.6 6.269 11.604-11.47c3.205 2.686 7.092 3.78 9.203 1.6 4.069-4.202-.6-9.737-6.135-9.07 1.134-5.869-6.669-8.136-8.936-3.868-1.814 3.415.755 6.491 2.267 7.603Z"/><path fill="#D1BCA4" fill-rule="evenodd" d="M57.389 33.934a2 2 0 0 1 .575-1.96l8.067-7.506a9.451 9.451 0 0 1-1.303-2.078c-.805-1.776-1.087-4.064.169-6.428 1.738-3.273 5.468-3.807 8.198-2.807 2.268.832 4.238 2.823 4.57 5.627 2.561.31 4.828 1.637 6.21 3.506.906 1.224 1.464 2.73 1.394 4.354-.072 1.643-.781 3.227-2.098 4.587-1.68 1.735-3.965 2.019-6.032 1.593-1.506-.31-3.023-1.009-4.428-1.95L62.333 41.13a2 2 0 0 1-3.343-.928l-1.601-6.268Zm15.142-5.697c3.205 2.687 7.092 3.782 9.203 1.6 3.559-3.674.433-8.37-4.11-9.042a7.6 7.6 0 0 0-2.025-.027 5.54 5.54 0 0 0 .037-2.015c-.757-4.316-6.988-5.59-8.973-1.853-1.295 2.437-.357 4.701.836 6.203a7.785 7.785 0 0 0 1.431 1.4l-9.603 8.936 1.6 6.269 11.604-11.47Z" clip-rule="evenodd"/><path fill="#F9CBAA" d="M63.46 35.377c-7.687-7.81-30.003-4.959-44.88 11.902l29.01 30.375c21.2-14.134 20.983-37.08 15.87-42.276Z"/><path fill="#AD6B3C" fill-rule="evenodd" d="M17.133 48.66a2 2 0 0 1-.053-2.704c7.725-8.755 17.401-13.9 26.207-15.833 8.664-1.902 17.039-.781 21.598 3.852 1.72 1.748 2.784 4.664 3.216 7.952.443 3.365.267 7.409-.763 11.704-2.068 8.614-7.595 18.325-18.638 25.687a2 2 0 0 1-2.556-.283l-29.01-30.374Zm1.447-1.38c14.877-16.861 37.193-19.713 44.88-11.902 5.113 5.196 5.33 28.142-15.87 42.276L18.58 47.279Z" clip-rule="evenodd"/><path fill="#ECB68F" fill-rule="evenodd" d="M20.83 44.89a50.856 50.856 0 0 0-2.25 2.39l9.55 9.998-7.3-12.389Zm20.59 26.303c17.284-8.2 23.789-23.362 23.91-32.503 2.853 8.372.377 26.886-17.74 38.964l-6.17-6.461Z" clip-rule="evenodd"/><path fill="#FFE0CA" fill-rule="evenodd" d="M47.004 35.242a1.5 1.5 0 0 1-1.194 1.753c-7.32 1.392-12.58 4.662-14.187 6.011a1.5 1.5 0 0 1-1.929-2.298c1.994-1.673 7.724-5.17 15.556-6.66a1.5 1.5 0 0 1 1.754 1.194Z" clip-rule="evenodd"/><path fill="#FFEFE3" fill-rule="evenodd" d="M37.053 38.767h-.001l-.007.004-.027.013a20.616 20.616 0 0 0-.524.259c-.35.177-.834.429-1.367.725-1.089.607-2.294 1.355-3.011 2.018a1 1 0 1 1-1.357-1.47c.907-.837 2.297-1.683 3.395-2.295a41.05 41.05 0 0 1 1.997-1.04l.033-.015.01-.005.003-.001.428.903-.428-.903a1 1 0 0 1 .856 1.807Z" clip-rule="evenodd"/><path fill="#F07054" d="M18.762 46.692c3.333-3.334 12.792.72 21.126 9.054 8.334 8.334 12.387 17.792 9.054 21.126-3.334 3.334-12.792-.72-21.126-9.054-8.334-8.334-12.388-17.793-9.054-21.126Z"/><path fill="#A23D26" fill-rule="evenodd" d="M28.237 45.005c4.11 1.762 8.764 5.026 13.065 9.327 4.3 4.3 7.565 8.954 9.326 13.064.879 2.05 1.426 4.062 1.477 5.885.05 1.828-.402 3.657-1.75 5.005-1.347 1.348-3.176 1.8-5.005 1.749-1.822-.051-3.834-.598-5.884-1.477-4.11-1.761-8.764-5.025-13.065-9.326-4.3-4.3-7.565-8.954-9.326-13.065-.878-2.05-1.425-4.061-1.476-5.884-.051-1.829.4-3.658 1.748-5.005 1.348-1.348 3.177-1.8 5.006-1.75 1.822.052 3.835.599 5.884 1.477Zm11.65 10.74c-8.333-8.333-17.792-12.387-21.125-9.053-3.334 3.333.72 12.792 9.054 21.126 8.334 8.334 17.792 12.388 21.126 9.054 3.333-3.334-.72-12.792-9.054-21.126Z" clip-rule="evenodd"/><path fill="#fff" d="M30.538 58.668c.732-.732 2.809.159 4.64 1.989 1.83 1.83 2.72 3.907 1.987 4.639-.732.732-2.809-.158-4.639-1.988s-2.72-3.908-1.988-4.64Z"/><path fill="#A23D26" fill-rule="evenodd" d="M33.233 56.863c1.127.483 2.31 1.33 3.358 2.38 1.05 1.048 1.896 2.23 2.38 3.357.238.558.43 1.2.45 1.864.018.669-.144 1.549-.841 2.246-.698.697-1.578.86-2.247.84-.663-.018-1.305-.21-1.863-.45-1.127-.482-2.31-1.33-3.358-2.378-1.049-1.05-1.896-2.231-2.38-3.358-.238-.558-.43-1.2-.449-1.863-.019-.67.143-1.55.84-2.247.698-.697 1.578-.86 2.247-.84.663.018 1.306.21 1.863.45Zm1.944 3.794c-1.83-1.83-3.907-2.72-4.64-1.989-.731.732.159 2.81 1.99 4.64 1.83 1.83 3.906 2.72 4.638 1.988.732-.732-.158-2.81-1.988-4.64Z" clip-rule="evenodd"/><path fill="#D55639" d="M40.458 72.446c.368-.368 1.413.08 2.334 1 .92.922 1.369 1.967 1 2.335-.368.368-1.413-.08-2.334-1-.92-.921-1.369-1.966-1-2.335zm4.644.5c.31-.31 1.085-.04 1.73.605s.916 1.42.605 1.73c-.31.311-1.085.04-1.73-.605s-.916-1.42-.605-1.73zm-10.364-3.044c.31-.31 1.085-.04 1.73.606.645.645.916 1.42.605 1.73-.31.31-1.085.04-1.73-.605s-.916-1.42-.605-1.73zm5.944-1.616c.31-.311 1.085-.04 1.73.605s.916 1.42.605 1.73c-.31.31-1.085.04-1.73-.605s-.916-1.42-.605-1.73zm4.138.516c.2-.199.696-.025 1.11.388.413.414.587.91.387 1.11-.199.199-.696.025-1.109-.388-.414-.414-.587-.91-.388-1.11zm-14.676-1.407c.2-.2.696-.026 1.11.388.413.413.587.91.388 1.11-.2.198-.696.025-1.11-.389-.413-.413-.587-.91-.388-1.11zm-2.79-3.633c.2-.199.696-.025 1.11.388.413.414.587.91.388 1.11-.2.199-.696.025-1.11-.388-.413-.414-.587-.91-.388-1.11zm14.51 2.314c.148-.146.513-.019.817.286.305.304.432.67.286.816-.147.147-.512.019-.816-.286-.305-.304-.433-.67-.286-.816zm-3.436 3.74c.146-.146.512-.018.816.286.304.304.432.67.285.816-.146.147-.512.019-.816-.285-.304-.305-.432-.67-.285-.817zM23.614 61.14c.147-.146.512-.019.816.286.304.304.432.67.286.816-.147.147-.512.019-.816-.286-.305-.304-.433-.67-.286-.816zm23.659 9.876c.146-.146.512-.018.816.286.304.304.432.67.286.816-.147.147-.512.019-.817-.285-.304-.305-.432-.67-.285-.817z"/><path fill="#D09469" d="M55.458 65.513c-.508.683-1.29.962-1.745.624-.456-.34-.413-1.168.095-1.852.509-.683 1.29-.963 1.746-.624.456.34.413 1.168-.096 1.852zm3.697-8.036c-.453.721-1.21 1.06-1.691.758-.481-.302-.503-1.132-.05-1.853.454-.721 1.211-1.06 1.692-.758.48.302.503 1.132.05 1.853zm4.841-5.305c-.424.738-1.168 1.108-1.66.824-.492-.283-.547-1.11-.123-1.85.425-.738 1.169-1.107 1.66-.824.493.283.548 1.111.123 1.85zm-5.245 9.47c-.346.464-.878.655-1.188.424-.31-.23-.282-.795.065-1.26.346-.466.878-.656 1.188-.425.31.23.281.795-.065 1.26zm3.791-5.895c-.31.49-.827.72-1.154.512-.326-.207-.339-.772-.028-1.262.31-.49.827-.719 1.154-.511.326.207.339.772.028 1.261zm-2.21-3.777c-.258.406-.686.595-.956.424-.27-.172-.281-.64-.024-1.045.257-.406.685-.596.956-.424.27.172.28.64.023 1.045zm-4.42 6.315c-.256.406-.684.596-.955.424-.27-.172-.28-.64-.023-1.045.257-.406.685-.596.955-.424.27.172.281.64.024 1.045zm-3.651 3.946c-.346.465-.878.655-1.189.425-.31-.231-.28-.796.065-1.261.346-.466.879-.656 1.189-.425.31.23.281.795-.065 1.26zm3.642-1.04c-.262.354-.666.498-.902.323-.235-.175-.213-.603.05-.956.262-.353.666-.498.901-.323.236.175.214.604-.049.957zm1.092-5.823c-.222.298-.563.42-.762.272-.2-.148-.18-.51.041-.808.222-.299.564-.42.763-.273.199.149.18.51-.042.809zm.32-2.668c-.223.298-.564.42-.763.272-.199-.148-.18-.51.042-.808.222-.299.563-.42.762-.273.2.148.18.51-.042.809zm-3.084 4.285c-.222.298-.563.42-.762.272-.199-.148-.18-.51.042-.808.222-.299.563-.42.762-.273.199.148.18.51-.042.809zm-4.467 1.258c-.222.298-.564.42-.763.272-.199-.148-.18-.51.042-.808.222-.299.563-.42.762-.273.2.148.18.51-.041.809zm13.31-9.575c-.222.298-.564.42-.763.272-.199-.148-.18-.51.042-.808.222-.299.563-.42.762-.273.2.148.18.51-.041.809zm-9.826 10.62c-.222.298-.563.42-.762.272-.2-.148-.18-.51.041-.808.222-.299.564-.42.763-.273.199.148.18.51-.042.809zm1.271 9.511c-.222.299-.563.42-.762.273-.199-.148-.18-.51.042-.809.222-.298.563-.42.762-.272.199.148.18.51-.042.808zm3.466-4.745c-.166.223-.42.314-.568.204-.149-.11-.135-.38.03-.603.166-.223.42-.314.57-.203.147.11.133.38-.032.603zm3.16-5.277c-.166.223-.42.314-.569.203-.148-.11-.134-.38.032-.602.165-.223.42-.314.568-.204.148.11.134.38-.031.603zm4.08-12.629c-.165.223-.42.314-.567.203-.149-.11-.135-.38.03-.602.166-.223.42-.314.569-.204.148.11.134.38-.031.603z"/><path fill="#fff" fill-rule="evenodd" d="m70.66 17.29-.01.01a2.842 2.842 0 0 0-.302.48 3.525 3.525 0 0 0-.363 1.583 1 1 0 1 1-2 0c0-1.058.285-1.898.575-2.478a4.835 4.835 0 0 1 .554-.865 2.43 2.43 0 0 1 .05-.058l.017-.02.007-.007.003-.003.001-.001c.001-.001.001-.001.73.682l-.729-.683a1 1 0 0 1 1.467 1.36Z" clip-rule="evenodd"/></svg>