<svg xmlns="http://www.w3.org/2000/svg" fill="none" viewBox="0 0 48 48" id="sendaparcel"><path fill="#ff967f" d="m11 16 16 5v18l-16-5V16Z" class="colorffbd7f svgShape"></path><path fill="#ff542f" d="m43 16-16 5v18l16-5V16Z" class="coloredab6e svgShape"></path><path fill="#fdb09f" d="m27 21-16-5 16-5 16 5-16 5Z" class="colorfdd29f svgShape"></path><path fill="#ffd4cb" fill-rule="evenodd" d="M27.15 19.759a.5.5 0 0 1-.299 0l-10-3.125a.5.5 0 0 1 .298-.955L27 18.757l9.851-3.078a.5.5 0 1 1 .298.955l-10 3.125Z" clip-rule="evenodd" class="colorffe7cb svgShape"></path><path fill="#848484" d="m16.434 25.049-3.51-3.566c-.624-.635-1.705-.192-1.705.7 0 .55-.446.996-.997.996H4.625a1 1 0 0 0-1 1v3.142a1 1 0 0 0 1 1h5.597c.55 0 .997.446.997.997 0 .891 1.08 1.334 1.706.699l3.51-3.566a1 1 0 0 0 0-1.402Z" class="color17f2cb svgShape"></path><path fill="#ffae9d" fill-rule="evenodd" d="M10.031 24.429a.5.5 0 0 1-.5.5H5.437v2.134a.5.5 0 0 1-1 0v-2.634a.5.5 0 0 1 .5-.5h4.594a.5.5 0 0 1 .5.5Z" clip-rule="evenodd" class="color9dffee svgShape"></path><path fill="#ffc5b8" fill-rule="evenodd" d="M11.461 17.941a.5.5 0 0 1 .629-.323l9.168 2.936.004.001 3.996 1.249a.5.5 0 1 1-.298.955l-4.003-1.252-9.172-2.937a.5.5 0 0 1-.324-.629Z" clip-rule="evenodd" class="colorffdab8 svgShape"></path><path fill="#ffb3a2" d="m32.234 31.75-2.61.815V35.5l2.61-.815V31.75Z" class="colorfff6a2 svgShape"></path><path fill="#3d3d3d" fill-rule="evenodd" d="M27.15 21.477a.499.499 0 0 1-.3 0l-16-5a.5.5 0 0 1 0-.954l16-5a.499.499 0 0 1 .3 0l16 5a.5.5 0 0 1 0 .954l-16 5ZM41.323 16 27 11.524 12.676 16 27 20.476 41.324 16Z" clip-rule="evenodd" class="color1f0d02 svgShape"></path><path fill="#3d3d3d" fill-rule="evenodd" d="M43 15.5a.5.5 0 0 0-.5.5v17.632l-15 4.688V21a.5.5 0 0 0-1 0v18a.5.5 0 0 0 .65.477l16-5A.5.5 0 0 0 43.5 34V16a.5.5 0 0 0-.5-.5Z" clip-rule="evenodd" class="color1f0d02 svgShape"></path><path fill="#3d3d3d" fill-rule="evenodd" d="M27 20.5a.5.5 0 0 1 .5.5v18a.5.5 0 0 1-.65.477l-16-5a.5.5 0 1 1 .299-.954l15.35 4.797V21a.5.5 0 0 1 .5-.5zm-6.476-7.653a.5.5 0 0 1 .63-.323l15.5 5A.5.5 0 0 1 37 18v4.5a.5.5 0 1 1-1 0v-4.136l-15.154-4.888a.5.5 0 0 1-.322-.63zM16.078 26.1a.5.5 0 0 0 0-.702l-3.51-3.565a.496.496 0 0 0-.85.348c0 .827-.67 1.497-1.496 1.497H4.625a.5.5 0 0 0-.5.5v3.142a.5.5 0 0 0 .5.5h5.597c.827 0 1.497.67 1.497 1.497 0 .444.538.664.85.348l3.509-3.565zm.713-1.403a1.5 1.5 0 0 1 0 2.104l-3.51 3.565c-.939.954-2.562.29-2.562-1.05a.496.496 0 0 0-.497-.496H4.625a1.5 1.5 0 0 1-1.5-1.5V24.18a1.5 1.5 0 0 1 1.5-1.5h5.597a.496.496 0 0 0 .497-.497c0-1.338 1.623-2.003 2.562-1.05l3.51 3.566zm15.739 6.65a.5.5 0 0 0-.446-.075l-2.608.815a.5.5 0 0 0-.351.477V35.5a.5.5 0 0 0 .65.477l2.608-.815a.5.5 0 0 0 .35-.477V31.75a.5.5 0 0 0-.203-.403zm-.796 1.082v1.887l-1.61.503v-1.887l1.61-.503z" clip-rule="evenodd" class="color1f0d02 svgShape"></path></svg>