<svg xmlns="http://www.w3.org/2000/svg" width="96" height="96" fill="none" id="star-gold"><path fill="#F7B307" d="m13.308 39.134 17.205-3.452a4 4 0 0 0 2.646-1.869l6.966-11.646 4.442-7.427c1.552-2.596 5.313-2.596 6.865 0L62.84 33.813a4 4 0 0 0 2.646 1.869l17.205 3.452c3.128.627 4.299 4.486 2.046 6.746l-14.23 14.275a4 4 0 0 0-1.09 3.606l3.232 16.212c.651 3.265-2.74 5.85-5.716 4.357l-17.14-8.597a4 4 0 0 0-3.587 0l-17.14 8.597c-2.976 1.493-6.367-1.092-5.716-4.357l3.232-16.212a4 4 0 0 0-1.09-3.606L11.262 45.88c-2.252-2.26-1.082-6.119 2.046-6.746Z"></path><path fill="#5B3303" fill-rule="evenodd" d="M12.915 37.173 30.12 33.72a2 2 0 0 0 1.323-.934L42.85 13.713c2.328-3.893 7.97-3.893 10.298 0l11.408 19.074a2 2 0 0 0 1.323.934l17.205 3.452c4.692.941 6.448 6.729 3.069 10.119l-14.23 14.275a2 2 0 0 0-.545 1.803l3.232 16.212c.976 4.898-4.11 8.775-8.574 6.536l-17.14-8.597a2 2 0 0 0-1.794 0l-17.14 8.597c-4.464 2.24-9.55-1.638-8.574-6.536L24.62 63.37a2 2 0 0 0-.545-1.803L9.846 47.292c-3.379-3.39-1.624-9.178 3.07-10.12Zm17.598-1.491L13.31 39.134c-3.129.627-4.3 4.486-2.046 6.746l14.23 14.275a4 4 0 0 1 1.09 3.606L23.35 79.973c-.65 3.265 2.74 5.85 5.716 4.357l17.14-8.597a4 4 0 0 1 3.587 0l17.14 8.597c2.977 1.493 6.367-1.092 5.716-4.357L69.418 63.76a4 4 0 0 1 1.09-3.606l14.23-14.275c2.253-2.26 1.083-6.119-2.046-6.746l-17.204-3.452a4 4 0 0 1-2.646-1.869L51.433 14.74c-1.553-2.596-5.313-2.596-6.866 0L33.159 33.813a4 4 0 0 1-2.646 1.869Z" clip-rule="evenodd"></path><path fill="#FFC530" fill-rule="evenodd" d="M44.54 49.159a1 1 0 0 1 .3 1.382l-9 14a1 1 0 0 1-1.682-1.082l9-14a1 1 0 0 1 1.382-.3Z" clip-rule="evenodd"></path><path fill="#FFC01D" d="M84.737 45.88 72.615 58.04a4 4 0 0 1-4.734.696L48 48l15.928-13c.46.333.99.568 1.559.682l17.204 3.452c3.129.627 4.299 4.486 2.046 6.746Z"></path><path fill="#FFD363" fill-rule="evenodd" d="M72.992 42.876a1 1 0 0 1-.868 1.116l-16 2a1 1 0 1 1-.248-1.984l16-2a1 1 0 0 1 1.116.868Z" clip-rule="evenodd"></path><path fill="#CF9500" d="m46.207 75.733-17.14 8.597c-1.451.728-3 .487-4.132-.33L48 48l37.907-5a3.938 3.938 0 0 1-1.17 2.88l-14.23 14.275a4 4 0 0 0-1.09 3.606l3.233 16.212c.65 3.265-2.74 5.85-5.717 4.357l-17.14-8.597a4 4 0 0 0-3.586 0Z"></path><path fill="#B97D08" d="m69.418 63.76 3.232 16.213c.333 1.674-.395 3.168-1.584 4.027L48 48l22.507 12.155a4 4 0 0 0-1.09 3.606Z"></path><path fill="#FFD056" d="m13.309 39.134 17.204-3.452a4 4 0 0 0 2.646-1.869L44.567 14.74A3.964 3.964 0 0 1 48 12.793V48l-37.763-6c.376-1.371 1.466-2.544 3.072-2.866Z"></path><path fill="#FFE39A" fill-rule="evenodd" d="M46.02 18a1 1 0 0 1 .98 1.02l-.5 25.5a1 1 0 0 1-1.127.972l-27.5-3.5a1 1 0 1 1 .253-1.984l26.396 3.36L45 18.98a1 1 0 0 1 1.02-.98Z" clip-rule="evenodd"></path><path fill="#FFFBF0" fill-rule="evenodd" d="M38.008 43.547a1 1 0 0 1 1.118-.866l6.5.827a1 1 0 0 1-.253 1.984l-6.5-.827a1 1 0 0 1-.865-1.118Z" clip-rule="evenodd"></path><path fill="#BA8600" d="M49 55.5a1.5 1.5 0 1 1-3 0 1.5 1.5 0 0 1 3 0zm3 4a.5.5 0 1 1-1 0 .5.5 0 0 1 1 0zm-7 4a.5.5 0 1 1-1 0 .5.5 0 0 1 1 0zm6-1a.5.5 0 1 1-1 0 .5.5 0 0 1 1 0zm7 4a.5.5 0 1 1-1 0 .5.5 0 0 1 1 0zm-7-11a.5.5 0 1 1-1 0 .5.5 0 0 1 1 0zm-3-4a.5.5 0 1 1-1 0 .5.5 0 0 1 1 0zm5 14a.5.5 0 1 1-1 0 .5.5 0 0 1 1 0zM50 59a1 1 0 1 1-2 0 1 1 0 0 1 2 0zm-1 4a1 1 0 1 1-2 0 1 1 0 0 1 2 0zm6 0a1 1 0 1 1-2 0 1 1 0 0 1 2 0zm-9-3a1 1 0 1 1-2 0 1 1 0 0 1 2 0z"></path></svg>