<svg xmlns="http://www.w3.org/2000/svg" viewBox="0 0 24 24"><path fill="#FFC107" d="m23.36 8.555-7.382-1.101-3.33-7.025A.749.749 0 0 0 11.971 0h-.003a.75.75 0 0 0-.677.434L8.009 7.48.635 8.632a.749.749 0 0 0-.42 1.267l5.379 5.471-1.239 7.763a.747.747 0 0 0 .74.867.745.745 0 0 0 .365-.095l6.577-3.662 6.603 3.618a.752.752 0 0 0 1.101-.781l-1.294-7.755 5.342-5.506a.748.748 0 0 0-.429-1.264z"/><path fill="#FAFAFA" d="M12.417 17H10.75a.75.75 0 0 1 0-1.5h1.667c.021 0 .083-.06.083-.167v-3.667c0-.107-.063-.166-.083-.166H10.75a.75.75 0 0 1 0-1.5h1.667c.873 0 1.583.747 1.583 1.666v3.667c0 .919-.71 1.667-1.583 1.667z"/><path fill="#FAFAFA" d="M13.25 14.25h-2.5a.75.75 0 0 1 0-1.5h2.5a.75.75 0 0 1 0 1.5z"/></svg>