<svg xmlns="http://www.w3.org/2000/svg" width="96" height="97" fill="none"><path fill="#00162B" fill-opacity=".2" d="M30.526 31.834c-9.346-.796-18.377 6.797-17.773 16.157.97 17.126 15.349 23.194 23.831 23.194 8.078 0 22.216-5.745 23.831-23.194.604-9.36-8.426-16.953-17.772-16.157-2.465.21-5.197 1.696-6.059 1.85-.862-.154-3.594-1.64-6.059-1.85Z"/><path fill="#00162B" fill-opacity=".2" fill-rule="evenodd" d="m62.026 48.118-.002.022C60.31 66.663 45.23 72.801 36.584 72.801c-4.572 0-10.638-1.62-15.715-5.508-5.129-3.927-9.214-10.15-9.729-19.204-.673-10.505 9.362-18.73 19.523-17.864 1.466.125 2.94.617 4.066 1.044.383.146.759.297 1.08.426.148.06.285.114.405.161.143.057.266.104.37.142.105-.038.227-.085.37-.142l.405-.161c.322-.13.698-.28 1.08-.426 1.127-.427 2.6-.92 4.067-1.044 10.162-.867 20.2 7.362 19.522 17.87l-.002.023ZM36.584 33.683c-.286-.05-.778-.249-1.399-.498-1.248-.501-3.013-1.21-4.66-1.35-9.345-.797-18.376 6.796-17.772 16.156.97 17.126 15.349 23.194 23.831 23.194 8.078 0 22.216-5.745 23.831-23.194.604-9.36-8.426-16.953-17.772-16.157-1.646.14-3.412.85-4.66 1.351-.62.25-1.113.447-1.399.498Z" clip-rule="evenodd"/><path fill="#73B40D" d="M35.587 28.864c-1.022-7.532-7.081-6.32-10.716-10.359 1.023 2.495 7.31 9.358 10.716 10.36Z"/><path fill="#436C02" fill-rule="evenodd" d="M36.674 30.128c.428-.368.64-.928.565-1.488-.287-2.117-.948-3.738-1.92-5.014-.966-1.267-2.156-2.084-3.312-2.714a31.758 31.758 0 0 0-1.834-.907c-.514-.242-.995-.467-1.466-.714-1.008-.526-1.875-1.098-2.598-1.9a1.667 1.667 0 0 0-2.78 1.747c.347.845 1.052 1.891 1.854 2.922a39.206 39.206 0 0 0 2.967 3.356c1.102 1.116 2.299 2.203 3.462 3.086 1.13.858 2.357 1.624 3.505 1.961.543.16 1.128.034 1.557-.335Zm-1.536-3.273c.195.592.347 1.257.45 2.01-.558-.164-1.193-.485-1.869-.918-1.929-1.236-4.196-3.385-5.97-5.405-1.404-1.598-2.5-3.116-2.878-4.037 1.141 1.269 2.522 2.02 3.911 2.686.226.108.452.214.677.32 2.36 1.107 4.633 2.175 5.679 5.344Z" clip-rule="evenodd"/><path fill="#73B40D" d="M36.182 31.288c1.023-7.532 7.269-11.167 11.308-10.36-6.059.808-4.443 8.483-11.308 10.36Z"/><path fill="#436C02" fill-rule="evenodd" d="M35.084 32.541a1.667 1.667 0 0 1-.553-1.477c1.128-8.308 8.137-12.8 13.286-11.77a1.667 1.667 0 0 1-.107 3.287c-2.085.278-2.843 1.57-4.104 3.915l-.015.028c-1.21 2.254-2.813 5.235-6.97 6.371a1.667 1.667 0 0 1-1.537-.354Zm1.481-3.137a14.49 14.49 0 0 0-.383 1.884 8.403 8.403 0 0 0 1.815-.72c2.163-1.18 3.197-3.103 4.178-4.929.49-.913.968-1.802 1.567-2.56.863-1.093 1.978-1.915 3.748-2.15-1.427-.286-3.13-.017-4.78.783-2.612 1.266-5.094 3.862-6.145 7.692Z" clip-rule="evenodd"/><path fill="#457003" fill-rule="evenodd" d="M36.18 17.646c.92 0 1.667.746 1.667 1.667V31.43a1.667 1.667 0 1 1-3.333 0V19.313c0-.92.746-1.667 1.666-1.667Z" clip-rule="evenodd"/><path fill="#FF3A1A" d="M28.91 30.219c-9.346-.797-18.376 6.796-17.773 16.157.97 17.126 15.35 23.194 23.831 23.194 8.079 0 22.216-5.745 23.832-23.194.604-9.36-8.427-16.954-17.773-16.157-2.465.21-5.197 1.695-6.059 1.849-.861-.154-3.593-1.639-6.058-1.85Z"/><path fill="#A20505" fill-rule="evenodd" d="m60.461 46.506-.002.023c-1.718 18.557-16.828 24.707-25.49 24.707-4.583 0-10.66-1.623-15.747-5.518-5.14-3.936-9.233-10.172-9.748-19.242-.676-10.54 9.391-18.786 19.577-17.918 1.474.126 2.953.62 4.08 1.048.384.145.76.297 1.082.426l.404.161c.135.054.252.098.352.135.1-.037.216-.081.351-.135l.404-.161c.321-.13.698-.28 1.082-.426 1.127-.428 2.606-.922 4.08-1.048 10.188-.869 20.257 7.381 19.577 17.925l-.002.023ZM34.97 32.068c-.287-.051-.78-.25-1.4-.498-1.248-.502-3.013-1.21-4.66-1.351-9.345-.797-18.375 6.796-17.772 16.157.97 17.126 15.35 23.194 23.831 23.194 8.079 0 22.216-5.745 23.832-23.194.604-9.36-8.427-16.954-17.773-16.157-1.646.14-3.412.85-4.66 1.35-.62.25-1.112.448-1.398.499Z" clip-rule="evenodd"/><path fill="#E83214" fill-rule="evenodd" d="M14.963 35.806c3.396-3.77 8.62-6.041 13.947-5.587 1.646.14 3.412.85 4.66 1.35.62.25 1.112.448 1.398.499.287-.051.78-.25 1.4-.498 1.247-.502 3.013-1.21 4.66-1.351 5.636-.48 11.158 2.09 14.52 6.26-4.383-2.245-9.657-3.444-14.52-3.029-1.647.14-3.413.85-4.66 1.35-.62.25-1.113.448-1.4.499-.286-.051-.778-.249-1.399-.498-1.247-.501-3.013-1.21-4.66-1.35-5.027-.43-9.902.504-13.946 2.355Z" clip-rule="evenodd"/><path fill="#E83214" fill-rule="evenodd" d="M18.872 63.267c4.342 2.724 9.165 3.88 12.865 3.88 8.078 0 22.216-5.746 23.831-23.195.288-4.463-1.614-8.524-4.696-11.466 4.898 2.848 8.306 8.021 7.928 13.89C57.184 63.825 43.047 69.57 34.968 69.57c-4.653 0-11.08-1.826-16.096-6.302Z" clip-rule="evenodd"/><path fill="#8ED918" d="M36.18 28.397c5.655-5.045 7.27.61 12.522 1.418-2.653.485-9.841.909-12.522-1.418Z"/><path fill="#436C02" fill-rule="evenodd" d="M34.514 28.408c-.004-.48.2-.936.557-1.255 1.542-1.376 2.987-2.185 4.446-2.422 1.499-.243 2.76.159 3.821.69.519.26 1.015.563 1.47.848l.286.18c.362.227.703.442 1.065.65.887.513 1.769.91 2.796 1.069a1.667 1.667 0 0 1 .046 3.286c-1.452.266-4.04.501-6.634.37-1.3-.065-2.652-.225-3.886-.542-1.213-.31-2.447-.805-3.393-1.627a1.667 1.667 0 0 1-.575-1.247Zm3.02-1.073c-.425.284-.875.634-1.354 1.061.413.358.932.651 1.524.889 1.967.788 4.745.967 7.133.896 1.571-.047 2.974-.203 3.865-.366-1.348-.208-2.457-.734-3.455-1.317a36.42 36.42 0 0 1-1.054-.647c-2.06-1.298-3.818-2.405-6.658-.515Z" clip-rule="evenodd"/><path fill="#8ED918" d="M34.968 29.007c-3.23-4.04-6.866-1.616-13.733-1.212 2.828 1.616 10.586 2.854 13.733 1.212Z"/><path fill="#436C02" fill-rule="evenodd" d="M36.6 29.35a1.667 1.667 0 0 0-.33-1.384c-.963-1.204-2.033-2.015-3.266-2.472-1.21-.449-2.446-.506-3.655-.422-1.018.071-2.123.254-3.244.439l-.55.09c-1.342.219-2.789.434-4.418.53a1.667 1.667 0 0 0-.729 3.111c1.7.971 4.606 1.72 7.385 2.037 1.42.161 2.88.22 4.222.12 1.314-.096 2.648-.353 3.724-.915.442-.23.758-.646.86-1.134Zm-2.919-1.61c.44.326.867.742 1.287 1.267-.48.25-1.066.433-1.726.559-2.368.45-5.68.152-8.377-.484-1.483-.35-2.78-.801-3.63-1.287a39.71 39.71 0 0 0 3.706-.41c.502-.076.984-.155 1.447-.232 3.072-.506 5.314-.876 7.293.588Z" clip-rule="evenodd"/><path fill="#FE7B7B" d="M29.277 35.178c1.66 2.471.003 6.492-3.703 8.983-3.706 2.49-8.056 2.506-9.716.036-1.66-2.47-.002-6.492 3.703-8.983 3.706-2.49 8.056-2.506 9.716-.035Z"/><path fill="#fff" fill-rule="evenodd" d="M22.396 37.14c.54.745.375 1.788-.37 2.328a4.294 4.294 0 0 0-1.254 1.39 1.667 1.667 0 0 1-2.908-1.631 7.628 7.628 0 0 1 2.205-2.458 1.667 1.667 0 0 1 2.327.371Z" clip-rule="evenodd"/><path fill="#C5270E" d="M49.602 53.046a1.628 1.628 0 1 1-2.621-1.931 1.628 1.628 0 0 1 2.621 1.931zm2.585 5.37a1.628 1.628 0 1 1-2.622-1.932 1.628 1.628 0 0 1 2.622 1.932zm1.94-5.508a1.221 1.221 0 1 1-1.967-1.449 1.221 1.221 0 0 1 1.967 1.449zm-6.047 9.727a1.628 1.628 0 1 1-2.622-1.932 1.628 1.628 0 0 1 2.622 1.932zm-1.563-5.29a1.628 1.628 0 1 1-2.622-1.931 1.628 1.628 0 0 1 2.621 1.931zm-4.506 7.714a1.628 1.628 0 1 1-2.621-1.932 1.628 1.628 0 0 1 2.621 1.932zm-.634-5.128a1.628 1.628 0 1 1-2.622-1.932 1.628 1.628 0 0 1 2.622 1.932zm-5.727 5.997a1.221 1.221 0 1 1-1.966-1.449 1.221 1.221 0 0 1 1.966 1.449z"/><path fill="#00162B" fill-opacity=".2" d="M63.244 57.612c-9.878 10.636-19.31 29.442-29.1 20.134-9.79-9.308 8.549-19.646 18.427-30.282 9.879-10.636 17.63-14.1 20.577-11.298 2.948 2.802-.025 10.81-9.904 21.446Z"/><path fill="#00162B" fill-opacity=".2" fill-rule="evenodd" d="M41.868 81.759c-3.075.79-6.106-.017-8.936-2.708-2.83-2.69-3.8-5.691-3.162-8.829.597-2.937 2.557-5.734 4.906-8.329 2.377-2.626 5.37-5.274 8.307-7.869l.105-.092c2.937-2.594 5.823-5.143 8.193-7.695 5.012-5.396 9.578-9.08 13.367-11.054 1.891-.986 3.683-1.595 5.3-1.716 1.642-.123 3.22.258 4.413 1.394 1.195 1.136 1.667 2.704 1.643 4.368-.023 1.638-.52 3.481-1.379 5.447-1.722 3.938-5.08 8.768-10.09 14.163-2.26 2.433-4.505 5.315-6.795 8.255l-.443.569c-2.416 3.1-4.89 6.241-7.384 8.762-2.467 2.493-5.153 4.591-8.045 5.334Zm14.495-15.792c2.276-2.922 4.566-5.863 6.881-8.355 9.879-10.637 12.852-18.644 9.904-21.446-2.947-2.802-10.698.662-20.577 11.298-2.43 2.617-5.372 5.215-8.282 7.785-8.917 7.875-17.526 15.479-10.144 22.497 7.496 7.127 14.781-2.229 22.218-11.779Z" clip-rule="evenodd"/><path fill="#00162B" fill-opacity=".2" d="M74.579 67.928c-11.486 8.831-21.965 26.279-31.793 13.194-9.828-13.085 9.593-18.628 21.078-27.459 11.486-8.83 17.555-8.46 20.514-4.521 2.959 3.939 1.686 9.955-9.8 18.786Z"/><path fill="#00162B" fill-opacity=".2" fill-rule="evenodd" d="M50.239 87.613c-3.244-.084-6.194-1.853-8.863-5.407-2.67-3.554-3.564-6.904-2.776-10.088.76-3.07 2.992-5.574 5.622-7.716 2.648-2.158 5.962-4.154 9.22-6.105l.237-.142c3.225-1.932 6.407-3.837 9.114-5.918 5.827-4.48 10.5-6.808 14.255-7.394 1.907-.298 3.621-.154 5.124.428 1.51.584 2.701 1.57 3.616 2.787.914 1.217 1.533 2.643 1.685 4.27.151 1.622-.17 3.331-.964 5.11-1.565 3.505-5.032 7.436-10.859 11.916-2.707 2.082-5.373 4.673-8.077 7.3l-.199.193c-2.73 2.653-5.517 5.349-8.282 7.353-2.744 1.989-5.727 3.495-8.853 3.413ZM66.38 75.328c2.677-2.6 5.408-5.255 8.198-7.4 11.485-8.831 12.758-14.847 9.799-18.786-2.959-3.94-9.028-4.31-20.514 4.521-2.79 2.145-6.048 4.097-9.242 6.01-9.953 5.96-19.277 11.543-11.836 21.449 7.44 9.906 15.254 2.312 23.595-5.794Z" clip-rule="evenodd"/><path fill="#4CAA1F" d="M61.473 55.82c-9.878 10.636-19.31 29.442-29.099 20.134-9.79-9.308 8.548-19.645 18.426-30.281 9.879-10.637 17.63-14.1 20.578-11.299 2.947 2.803-.026 10.81-9.905 21.446Z"/><path fill="#2B710A" fill-rule="evenodd" d="M40.097 79.967c-3.075.79-6.106-.017-8.936-2.707-2.83-2.691-3.8-5.692-3.162-8.83.597-2.937 2.558-5.733 4.907-8.329 2.377-2.626 5.369-5.274 8.306-7.868l.105-.093c2.937-2.594 5.823-5.143 8.193-7.694 5.012-5.397 9.578-9.08 13.367-11.055 1.892-.985 3.684-1.595 5.3-1.716 1.642-.123 3.22.259 4.413 1.394 1.195 1.136 1.667 2.704 1.643 4.368-.023 1.639-.519 3.482-1.378 5.447-1.722 3.939-5.08 8.768-10.091 14.163-2.26 2.433-4.505 5.315-6.795 8.256l-.443.568c-2.415 3.1-4.89 6.242-7.384 8.763-2.467 2.492-5.153 4.59-8.045 5.333Zm14.495-15.791c2.276-2.923 4.567-5.864 6.881-8.356 9.879-10.636 12.852-18.643 9.905-21.446-2.948-2.802-10.7.662-20.578 11.298-2.43 2.617-5.372 5.216-8.282 7.785-8.916 7.876-17.526 15.48-10.144 22.497 7.496 7.127 14.781-2.228 22.218-11.778Z" clip-rule="evenodd"/><path fill="#419C15" fill-rule="evenodd" d="M53.115 56.808c2.047-2.676 4.107-5.37 6.211-7.635 6.009-6.47 9.11-11.96 9.621-15.725 1.001.033 1.82.345 2.43.926 2.948 2.803-.025 10.81-9.904 21.446-2.314 2.492-4.605 5.433-6.88 8.355-7.438 9.55-14.723 18.906-22.219 11.779-3.53-3.356-3.403-6.846-1.335-10.435.373.491.816.984 1.335 1.477 7.496 7.127 14.05-1.441 20.74-10.188Z" clip-rule="evenodd"/><path fill="#5FCF2A" d="M61.1 38.54c1.244 2.051-6.025 11.646-13.725 17.917-4.755 3.873-13.281 10.75-13.6 7.795-1-1.173 8.875-9.757 13.157-13.17C56.23 43.673 59.245 37.008 61.1 38.541Z"/><path fill="#A0EA29" fill-rule="evenodd" d="M43.131 56.72a.903.903 0 0 1 0 1.267c-1.338 1.354-2.454 2.23-3.813 3.297-.486.381-1.003.787-1.572 1.248a.878.878 0 0 1-1.245-.14.903.903 0 0 1 .139-1.26c.617-.499 1.159-.924 1.656-1.315 1.325-1.04 2.329-1.828 3.583-3.097a.878.878 0 0 1 1.252 0Z" clip-rule="evenodd"/><path fill="#58C923" d="M73.144 66.258C61.66 75.088 51.18 92.536 41.351 79.452c-9.828-13.085 9.593-18.628 21.078-27.459 11.486-8.831 17.555-8.46 20.514-4.521 2.959 3.939 1.686 9.955-9.799 18.786Z"/><path fill="#2B710A" fill-rule="evenodd" d="M48.804 85.943c-3.243-.084-6.194-1.853-8.863-5.407-2.67-3.554-3.564-6.904-2.776-10.088.76-3.07 2.993-5.574 5.622-7.716 2.649-2.158 5.962-4.154 9.22-6.105l.237-.142c3.226-1.932 6.407-3.837 9.114-5.919 5.827-4.48 10.5-6.807 14.256-7.393 1.906-.298 3.62-.154 5.124.428 1.509.584 2.7 1.57 3.615 2.787.915 1.217 1.534 2.643 1.686 4.27.15 1.622-.17 3.331-.965 5.11-1.564 3.505-5.031 7.436-10.858 11.916-2.707 2.082-5.374 4.673-8.077 7.3l-.2.193c-2.73 2.653-5.517 5.349-8.281 7.353-2.745 1.989-5.727 3.495-8.854 3.413Zm16.143-12.285c2.676-2.601 5.407-5.255 8.197-7.4 11.485-8.831 12.758-14.847 9.8-18.786-2.96-3.94-9.03-4.31-20.515 4.521-2.79 2.145-6.048 4.097-9.242 6.009-9.953 5.96-19.276 11.544-11.836 21.45 7.44 9.906 15.255 2.312 23.596-5.794Z" clip-rule="evenodd"/><path fill="#4CAA1F" fill-rule="evenodd" d="M63.176 70.075c2.676-2.601 5.407-5.255 8.197-7.4 8.884-6.83 11.658-11.977 11.09-15.781.168.183.328.376.48.578 2.96 3.939 1.686 9.955-9.799 18.786-2.79 2.145-5.52 4.8-8.197 7.4-8.341 8.106-16.155 15.7-23.596 5.794-1.167-1.554-1.921-3.001-2.326-4.36.174.256.359.515.555.776 7.44 9.907 15.255 2.313 23.596-5.793Z" clip-rule="evenodd"/><path fill="#79E645" d="M70.48 52.615c1.244 2.05-15.136 13.696-15.136 13.696s-13.486 8.073-14.486 6.9c-1-1.174 5.151-7.391 10.059-9.793 12.922-6.324 17.708-12.336 19.562-10.803Z"/><path fill="#fff" fill-rule="evenodd" d="M56.548 62.28a.903.903 0 0 1-.182 1.254c-1.103.83-3.065 1.965-4.974 3.069l-.432.25c-2.105 1.219-4.038 2.357-4.908 3.096a.878.878 0 0 1-1.248-.11.903.903 0 0 1 .11-1.262c1.022-.869 3.134-2.102 5.167-3.28l.377-.218c1.965-1.136 3.838-2.22 4.851-2.983a.879.879 0 0 1 1.24.184Z" clip-rule="evenodd"/><path fill="#47A21D" d="M56.032 58.66a1.15 1.15 0 0 1-1.143 1.157 1.15 1.15 0 0 1-1.144-1.157c0-.64.512-1.158 1.144-1.158a1.15 1.15 0 0 1 1.143 1.158zm7.625-3.086a1.15 1.15 0 0 1-1.144 1.157 1.15 1.15 0 0 1-1.143-1.157c0-.64.512-1.157 1.143-1.157a1.15 1.15 0 0 1 1.144 1.157zm4.575-4.629a1.15 1.15 0 0 1-1.144 1.158 1.15 1.15 0 0 1-1.144-1.158 1.15 1.15 0 0 1 1.144-1.157 1.15 1.15 0 0 1 1.144 1.157zM49.17 64.831a1.15 1.15 0 0 1-1.143 1.157 1.15 1.15 0 0 1-1.144-1.157 1.15 1.15 0 0 1 1.144-1.157 1.15 1.15 0 0 1 1.143 1.157zm10.675-8.871a.767.767 0 0 1-.763.771.767.767 0 0 1-.762-.771c0-.426.341-.772.762-.772s.763.346.763.772zm-1.525 3.857a.767.767 0 0 1-.763.771.767.767 0 0 1-.762-.771c0-.426.341-.772.762-.772s.763.346.763.772zm6.862-7.714a.767.767 0 0 1-.763.771.767.767 0 0 1-.762-.771c0-.426.341-.772.762-.772s.763.346.763.772zm6.1-3.086a.767.767 0 0 1-.763.771.767.767 0 0 1-.763-.771c0-.426.342-.772.763-.772.42 0 .762.346.762.772zM45.357 65.988a.767.767 0 0 1-.762.771.767.767 0 0 1-.763-.771c0-.426.342-.771.763-.771.42 0 .762.345.762.771zm5.337-3.857a.767.767 0 0 1-.762.771.767.767 0 0 1-.763-.771c0-.426.342-.772.763-.772s.762.346.762.772zm3.813-.772c0 .853-.683 1.543-1.525 1.543-.842 0-1.525-.69-1.525-1.543 0-.852.683-1.542 1.525-1.542.842 0 1.525.69 1.525 1.542z"/><path fill="#79E745" d="M60.656 71.686c0 .742-.594 1.344-1.328 1.344A1.336 1.336 0 0 1 58 71.686c0-.742.595-1.343 1.328-1.343.734 0 1.328.601 1.328 1.343zm-5.312 8.959c0 .742-.595 1.344-1.328 1.344a1.336 1.336 0 0 1-1.328-1.344c0-.742.594-1.344 1.328-1.344.733 0 1.328.602 1.328 1.344zM69.51 67.207c0 .742-.594 1.344-1.328 1.344a1.336 1.336 0 0 1-1.328-1.344c0-.742.595-1.343 1.328-1.343.734 0 1.328.601 1.328 1.343zm9.74-8.062c0 .742-.594 1.343-1.328 1.343a1.336 1.336 0 0 1-1.328-1.343c0-.742.594-1.344 1.328-1.344.734 0 1.328.602 1.328 1.344zM63.313 73.03a.89.89 0 0 1-.886.896.89.89 0 0 1-.885-.896.89.89 0 0 1 .885-.896.89.89 0 0 1 .886.896zm8.854-8.062a.89.89 0 0 1-.886.896.89.89 0 0 1-.885-.896.89.89 0 0 1 .885-.896.89.89 0 0 1 .886.896zm-5.313 4.479c0 .99-.793 1.791-1.77 1.791-.979 0-1.771-.802-1.771-1.791 0-.99.792-1.792 1.77-1.792s1.771.802 1.771 1.792zm7.969-7.167c0 .99-.793 1.792-1.77 1.792-.979 0-1.772-.802-1.772-1.792s.793-1.791 1.771-1.791c.978 0 1.771.802 1.771 1.791zM58.886 76.614c0 .99-.793 1.791-1.771 1.791-.978 0-1.771-.802-1.771-1.791 0-.99.793-1.792 1.77-1.792.979 0 1.772.802 1.772 1.792z"/></svg>